<svg xmlns="http://www.w3.org/2000/svg" width="24.167" height="19.927" viewBox="0 0 24.167 19.927"><defs><style>.a,.b{fill:#535353;}.b{stroke:#535353;}</style></defs><g transform="translate(-75.778)"><g transform="translate(76.278)"><path class="a" d="M20.851,22.435H6.359A1.36,1.36,0,0,1,5,21.076V18.359A1.36,1.36,0,0,1,6.359,17H20.851a1.36,1.36,0,0,1,1.359,1.359v2.717A1.36,1.36,0,0,1,20.851,22.435ZM6.359,17.906a.454.454,0,0,0-.453.453v2.717a.454.454,0,0,0,.453.453H20.851a.454.454,0,0,0,.453-.453V18.359a.454.454,0,0,0-.453-.453Z" transform="translate(1.457 -2.508)"/><path class="a" d="M20.851,10.963H6.359A1.36,1.36,0,0,1,5,9.6V2.359A1.36,1.36,0,0,1,6.359,1H20.851a1.36,1.36,0,0,1,1.359,1.359V9.6A1.36,1.36,0,0,1,20.851,10.963ZM6.359,1.906a.454.454,0,0,0-.453.453V9.6a.454.454,0,0,0,.453.453H20.851A.454.454,0,0,0,21.3,9.6V2.359a.454.454,0,0,0-.453-.453Z" transform="translate(1.457 -1)"/><path class="a" d="M14.453,22.435A.453.453,0,0,1,14,21.982V17.453a.453.453,0,1,1,.906,0v4.529A.453.453,0,0,1,14.453,22.435Z" transform="translate(0.609 -2.508)"/><path class="a" d="M14.453,10.963A.453.453,0,0,1,14,10.51V1.453a.453.453,0,0,1,.906,0V10.51A.453.453,0,0,1,14.453,10.963Z" transform="translate(0.609 -1)"/><path class="a" d="M21.756,6.906H5.453a.453.453,0,0,1,0-.906h16.3a.453.453,0,0,1,0,.906Z" transform="translate(1.457 -1.471)"/><path class="b" d="M6.3,2.985H3.648V.332a.332.332,0,0,0-.663,0V2.985H.332a.332.332,0,0,0,0,.663H2.985V6.3a.332.332,0,1,0,.663,0V3.648H6.3a.332.332,0,1,0,0-.663Zm0,0" transform="translate(0 8.853)"/></g></g></svg>