<svg xmlns="http://www.w3.org/2000/svg" width="135.333" height="108" viewBox="0 0 135.333 108"><g id="Group_365" data-name="Group 365" transform="translate(-900 -411)"><g id="Path_363" fill="none" stroke-dasharray="10 5" data-name="Path 363"><path stroke="none" d="M0,0H135.333V108H0Z" transform="translate(900 411)"/><path fill="#707070" stroke="none" d="M 15 0 L 25 0 L 25 1 L 15 1 L 15 0 Z M 30 0 L 40 0 L 40 1 L 30 1 L 30 0 Z M 45 0 L 55 0 L 55 1 L 45 1 L 45 0 Z M 60 0 L 70 0 L 70 1 L 60 1 L 60 0 Z M 75 0 L 85 0 L 85 1 L 75 1 L 75 0 Z M 90 0 L 100 0 L 100 1 L 90 1 L 90 0 Z M 105 0 L 115 0 L 115 1 L 105 1 L 105 0 Z M 120 0 L 130 0 L 130 1 L 120 1 L 120 0 Z M 134.33349609375 0 L 135.33349609375 0 L 135.33349609375 1 L 135.33349609375 1 C 135.33349609375 3.470916748046875 135.33349609375 9.666511535644531 135.33349609375 9.666511535644531 L 134.33349609375 9.666511535644531 L 134.33349609375 0 Z M 134.33349609375 14.66651153564453 L 135.33349609375 14.66651153564453 C 135.33349609375 14.66651153564453 135.33349609375 24.66651153564453 135.33349609375 24.66651153564453 L 134.33349609375 24.66651153564453 L 134.33349609375 14.66651153564453 Z M 134.33349609375 29.66651153564453 L 135.33349609375 29.66651153564453 C 135.33349609375 29.66651153564453 135.33349609375 39.66651153564453 135.33349609375 39.66651153564453 L 134.33349609375 39.66651153564453 L 134.33349609375 29.66651153564453 Z M 134.33349609375 44.66650772094727 L 135.33349609375 44.66650772094727 C 135.33349609375 44.66650772094727 135.33349609375 54.66650772094727 135.33349609375 54.66650772094727 L 134.33349609375 54.66650772094727 L 134.33349609375 44.66650772094727 Z M 134.33349609375 59.66650772094727 L 135.33349609375 59.66650772094727 C 135.33349609375 59.66650772094727 135.33349609375 69.66650390625 135.33349609375 69.66650390625 L 134.33349609375 69.66650390625 L 134.33349609375 59.66650772094727 Z M 134.33349609375 74.66650390625 L 135.33349609375 74.66650390625 C 135.33349609375 74.66650390625 135.33349609375 84.66651153564453 135.33349609375 84.66651153564453 L 134.33349609375 84.66651153564453 L 134.33349609375 74.66650390625 Z M 134.33349609375 89.66651153564453 L 135.33349609375 89.66651153564453 C 135.33349609375 89.66651153564453 135.33349609375 99.66651153564453 135.33349609375 99.66651153564453 L 134.33349609375 99.66651153564453 L 134.33349609375 89.66651153564453 Z M 134.33349609375 104.6665115356445 L 135.33349609375 104.6665115356445 C 135.33349609375 104.6665115356445 135.33349609375 108 135.33349609375 108 L 134.33349609375 108 L 134.33349609375 108 L 134.33349609375 108 L 134.33349609375 108 L 134.33349609375 108 C 132.4730987548828 108 128.6669921875 108 128.6669921875 108 L 128.6669921875 107 L 134.33349609375 107 L 134.33349609375 104.6665115356445 Z M 113.6669845581055 107 L 123.6669845581055 107 L 123.6669845581055 108 C 123.6669845581055 108 113.6669845581055 108 113.6669845581055 108 L 113.6669845581055 107 Z M 98.66698455810547 107 L 108.6669845581055 107 L 108.6669845581055 108 C 108.6669845581055 108 98.66698455810547 108 98.66698455810547 108 L 98.66698455810547 107 Z M 83.66698455810547 107 L 93.66698455810547 107 L 93.66698455810547 108 C 93.66698455810547 108 83.66698455810547 108 83.66698455810547 108 L 83.66698455810547 107 Z M 68.66698455810547 107 L 78.66698455810547 107 L 78.66698455810547 108 C 78.66698455810547 108 68.66698455810547 108 68.66698455810547 108 L 68.66698455810547 107 Z M 53.66698455810547 107 L 63.66698455810547 107 L 63.66698455810547 108 C 63.66698455810547 108 53.66698455810547 108 53.66698455810547 108 L 53.66698455810547 107 Z M 38.66698455810547 107 L 48.66698455810547 107 L 48.66698455810547 108 C 48.66698455810547 108 38.66698455810547 108 38.66698455810547 108 L 38.66698455810547 107 Z M 23.66698455810547 107 L 33.66698455810547 107 L 33.66698455810547 108 C 33.66698455810547 108 23.66698455810547 108 23.66698455810547 108 L 23.66698455810547 107 Z M 8.666984558105469 107 L 18.66698455810547 107 L 18.66698455810547 108 C 18.66698455810547 108 8.666984558105469 108 8.666984558105469 108 L 8.666984558105469 107 Z M 0 101.6669845581055 L 1 101.6669845581055 L 1 107 L 3.666976928710938 107 L 3.666976928710938 108 C 3.666976928710938 108 0 108 0 108 L 0 101.6669845581055 Z M 0 86.66698455810547 L 1 86.66698455810547 L 1 96.66698455810547 L 0 96.66698455810547 L 0 86.66698455810547 Z M 0 71.66697692871094 L 1 71.66697692871094 L 1 81.66698455810547 L 0 81.66698455810547 L 0 71.66697692871094 Z M 0 56.6669807434082 L 1 56.6669807434082 L 1 66.66697692871094 L 0 66.66697692871094 L 0 56.6669807434082 Z M 0 41.66698455810547 L 1 41.66698455810547 L 1 51.6669807434082 L 0 51.6669807434082 L 0 41.66698455810547 Z M 0 26.66698455810547 L 1 26.66698455810547 L 1 36.66698455810547 L 0 36.66698455810547 L 0 26.66698455810547 Z M 0 11.66698455810547 L 1 11.66698455810547 L 1 21.66698455810547 L 0 21.66698455810547 L 0 11.66698455810547 Z M 0 0 L 10 0 L 10 1 L 1 1 L 1 6.666984558105469 L 0 6.666984558105469 L 0 0 Z" transform="translate(900 411)"/></g><g id="Group_475" data-name="Group 475" opacity=".2" transform="translate(948 422.733)"><g id="Group_466" data-name="Group 466" transform="translate(0 15.028)"><g id="Group_465" data-name="Group 465" transform="translate(0 0)"><path id="Path_370" d="M24,19.411,13.684,15.135a1.406,1.406,0,0,0-1.837.761L7.652,26.021.324,34.857a1.407,1.407,0,0,0-.27,1.282L4.032,50.151A1.406,1.406,0,0,0,6.069,51L18.79,43.9a1.406,1.406,0,0,0,.715-1.1l1.066-11.431,4.194-10.125A1.406,1.406,0,0,0,24,19.411ZM16.774,41.8,8.231,46.569l3.64-8.788a1.406,1.406,0,1,0-2.6-1.076l-3.64,8.788-2.672-9.41,6.329-7.631,4.2,1.74,4.2,1.741ZM18.43,29.193l-5.5-2.276-2.227-.922,3.2-7.723,7.723,3.2Z" data-name="Path 370" transform="translate(0 -15.028)"/></g></g><g id="Group_468" data-name="Group 468" transform="translate(0 39.323)"><g id="Group_467" data-name="Group 467" transform="translate(0 0)"><path id="Path_371" d="M46.594,274.172H31.531a5.925,5.925,0,1,0,0,11.85,3.112,3.112,0,0,1,0,6.225H1.406a1.406,1.406,0,0,0,0,2.813H31.531a5.925,5.925,0,0,0,0-11.85,3.113,3.113,0,1,1,0-6.225H46.594a1.406,1.406,0,0,0,0-2.812Z" data-name="Path 371" transform="translate(0 -274.172)"/></g></g></g></g></svg>