<svg xmlns="http://www.w3.org/2000/svg" width="36" height="36" viewBox="0 0 36 36"><defs><style>.a{fill:#fff;}.b{fill:#535353;}</style></defs><g transform="translate(3 4)"><rect class="a" width="36" height="36" transform="translate(-3 -4)"/><g transform="translate(0)"><g transform="translate(0)"><path class="b" d="M20.316,14.2a14.382,14.382,0,0,0-1.663-.668,7.517,7.517,0,1,0-9,0A14.378,14.378,0,0,0,.072,24.248,3.358,3.358,0,0,0,3.355,28.3H16.968a1.105,1.105,0,0,0,0-2.211H3.355a1.123,1.123,0,0,1-.884-.42,1.155,1.155,0,0,1-.234-.968,12.213,12.213,0,0,1,11.62-9.671q.146.006.293.006t.3-.006A12.041,12.041,0,0,1,19.367,16.2a1.105,1.105,0,0,0,.949-2Zm-5.9-1.384-.27,0-.268,0a5.306,5.306,0,1,1,.537,0Z" transform="translate(0)"/></g></g><g transform="translate(17.797 17.797)"><path class="b" d="M331.4,326.145h-3.04v-3.04a1.105,1.105,0,1,0-2.211,0v3.04h-3.04a1.105,1.105,0,1,0,0,2.211h3.04v3.04a1.105,1.105,0,1,0,2.211,0v-3.04h3.04a1.105,1.105,0,1,0,0-2.211Z" transform="translate(-322 -322)"/></g></g></svg>