<svg xmlns="http://www.w3.org/2000/svg" width="26.006" height="29.645" viewBox="0 0 26.006 29.645"><defs><style>.a{fill:#3B3E40;}</style></defs><g transform="translate(-2.1)"><g transform="translate(11.89 3.817)"><path class="a" d="M118.1,43H113.11a.71.71,0,1,0,0,1.42H118.1a.71.71,0,0,0,0-1.42Z" transform="translate(-112.4 -43)"/></g><g transform="translate(2.1)"><g transform="translate(0)"><path class="a" d="M25.221,0H4.967A2.883,2.883,0,0,0,2.1,2.867v5.92H28.106V2.867A2.9,2.9,0,0,0,25.221,0ZM17.588,6.657H12.6a2.13,2.13,0,0,1,0-4.26h4.988a2.13,2.13,0,0,1,0,4.26Z" transform="translate(-2.1)"/></g></g><g transform="translate(11.899 24.408)"><path class="a" d="M113.21,276.42H118.2a.71.71,0,1,0,0-1.42H113.21a.71.71,0,1,0,0,1.42Z" transform="translate(-112.5 -275)"/></g><g transform="translate(2.1 20.858)"><g transform="translate(0)"><path class="a" d="M4.976,243.787H25.23a2.9,2.9,0,0,0,2.876-2.867V235H2.1v5.92A2.89,2.89,0,0,0,4.976,243.787Zm7.633-6.657H17.6a2.13,2.13,0,1,1,0,4.26H12.609a2.13,2.13,0,1,1,0-4.26Z" transform="translate(-2.1 -235)"/></g></g><g transform="translate(11.89 14.112)"><path class="a" d="M118.1,159H113.11a.71.71,0,1,0,0,1.42H118.1a.71.71,0,1,0,0-1.42Z" transform="translate(-112.4 -159)"/></g><g transform="translate(2.1 10.207)"><g transform="translate(0)"><path class="a" d="M2.1,115v9.231l26.006.044V115Zm15.488,6.746H12.6a2.13,2.13,0,1,1,0-4.26h4.988a2.13,2.13,0,1,1,0,4.26Z" transform="translate(-2.1 -115)"/></g></g></g></svg>