<svg xmlns="http://www.w3.org/2000/svg" id="Group_2236" width="36.333" height="36.404" data-name="Group 2236" viewBox="0 0 36.333 36.404"><path id="Path_546" fill="#77787b" d="M8.594,147.426H19.2v2.083H8.594Zm.022-4.271h10.6v2.091H8.616Zm-4.272-6.4v21.306H0V160.2H8.587v-6.375H19.231V160.2h4.258V136.756Z" data-name="Path 546" transform="translate(0 -123.791)"/><path id="Path_547" fill="#77787b" d="M150.405,30.033h2.086v2.089h-2.086Zm0-4.277h2.081v2.093h-2.081Zm0-4.263H152.5v2.089h-2.092Zm0-4.271H152.5V19.31h-2.084Zm0-4.252h2.082v2.088h-2.082ZM139.759,6.562h10.61V8.647h-10.61ZM139.77,2.3h10.608V4.379H139.77ZM135.485,0V10.824h12.773V36.4h10.715V34.277h-4.329V0Z" data-name="Path 547" transform="translate(-122.641)"/><rect id="Rectangle_590" width="2.129" height="4.243" fill="#77787b" data-name="Rectangle 590" transform="translate(10.715 32.162)"/><rect id="Rectangle_591" width="2.129" height="4.242" fill="#77787b" data-name="Rectangle 591" transform="translate(14.973 32.162)"/></svg>