<svg xmlns="http://www.w3.org/2000/svg" width="18.332" height="19.999" viewBox="0 0 18.332 19.999"><defs><style>.a{opacity:0.5;}</style></defs><g class="a" transform="translate(-1)"><path d="M18.083,20.666h-10A2.086,2.086,0,0,1,6,18.583V6.083A2.086,2.086,0,0,1,8.083,4h10a2.086,2.086,0,0,1,2.083,2.083v12.5A2.086,2.086,0,0,1,18.083,20.666Zm-10-15.833a1.251,1.251,0,0,0-1.25,1.25v12.5a1.251,1.251,0,0,0,1.25,1.25h10a1.251,1.251,0,0,0,1.25-1.25V6.083a1.251,1.251,0,0,0-1.25-1.25Z" transform="translate(-0.834 -0.667)"/><path d="M3.917,17.5H3.083A2.086,2.086,0,0,1,1,15.416V2.083A2.086,2.086,0,0,1,3.083,0h10a2.086,2.086,0,0,1,2.083,2.083.417.417,0,1,1-.833,0,1.251,1.251,0,0,0-1.25-1.25h-10a1.251,1.251,0,0,0-1.25,1.25V15.416a1.251,1.251,0,0,0,1.25,1.25h.833a.417.417,0,1,1,0,.833Z"/><path d="M17.083,16.833H10.417a.417.417,0,0,1,0-.833h6.666a.417.417,0,0,1,0,.833Z" transform="translate(-1.5 -2.667)"/><path d="M17.083,20.833H10.417a.417.417,0,1,1,0-.833h6.666a.417.417,0,0,1,0,.833Z" transform="translate(-1.5 -3.334)"/><path d="M17.083,12.833H10.417a.417.417,0,0,1,0-.833h6.666a.417.417,0,0,1,0,.833Z" transform="translate(-1.5 -2)"/><path d="M17.083,8.833H10.417a.417.417,0,0,1,0-.833h6.666a.417.417,0,0,1,0,.833Z" transform="translate(-1.5 -1.334)"/></g></svg>