<svg xmlns="http://www.w3.org/2000/svg" width="31.031" height="31.031" viewBox="0 0 31.031 31.031">
  <g id="Group_2296" data-name="Group 2296" transform="translate(-1820 -170)">
    <g id="computer" transform="translate(1820 170)">
      <path id="Path_567" data-name="Path 567" d="M30.122,25.577h-.3v-6.97A2.124,2.124,0,0,0,27.7,16.485H24.91V9a2.727,2.727,0,1,0-3.48-3.48H16.364V2.121A2.124,2.124,0,0,0,14.243,0H3.333A2.124,2.124,0,0,0,1.212,2.121v6.97h-.3A.909.909,0,0,0,0,10v.606a3.944,3.944,0,0,0,3.94,3.94H6.121v5.672A2.727,2.727,0,1,0,9.6,23.7h5.066v1.879h-.3a.909.909,0,0,0-.909.909v.606a3.944,3.944,0,0,0,3.94,3.94h9.7a3.944,3.944,0,0,0,3.94-3.94v-.606A.909.909,0,0,0,30.122,25.577ZM24,5.515a.909.909,0,1,1-.909.909A.91.91,0,0,1,24,5.515ZM3.03,2.121a.3.3,0,0,1,.3-.3H14.243a.3.3,0,0,1,.3.3v6.97H3.03ZM1.84,10.909h13.9a2.125,2.125,0,0,1-2.1,1.818H3.94a2.125,2.125,0,0,1-2.1-1.818ZM7.031,23.7a.909.909,0,1,1,.909-.909A.91.91,0,0,1,7.031,23.7ZM9.6,21.879A2.74,2.74,0,0,0,7.94,20.218V14.546h5.7a3.944,3.944,0,0,0,3.94-3.94V10a.909.909,0,0,0-.909-.909h-.3V7.334H21.43A2.74,2.74,0,0,0,23.092,9v7.49h-6.3a2.124,2.124,0,0,0-2.121,2.121v3.273Zm6.884-3.273a.3.3,0,0,1,.3-.3H27.7a.3.3,0,0,1,.3.3v6.97H16.485ZM27.092,29.213h-9.7a2.125,2.125,0,0,1-2.1-1.818h13.9a2.125,2.125,0,0,1-2.1,1.818Z" fill="#535353"/>
    </g>
    <g id="Group_2286" data-name="Group 2286" transform="translate(1820 186.624)">
      <circle id="Ellipse_44" data-name="Ellipse 44" cx="6.5" cy="6.5" r="6.5" transform="translate(0.031 0.376)" fill="#fff"/>
      <g id="Group_2285" data-name="Group 2285" transform="translate(2.217 2.217)">
        <g id="Group_119" data-name="Group 119">
          <path id="Path_190" data-name="Path 190" d="M330.131,325.587H327.5v-2.631a.957.957,0,1,0-1.913,0v2.631h-2.631a.957.957,0,1,0,0,1.913h2.631v2.631a.957.957,0,0,0,1.913,0V327.5h2.631a.957.957,0,0,0,0-1.913Z" transform="translate(-322 -322)" fill="#535353"/>
        </g>
      </g>
    </g>
  </g>
</svg>
