<svg xmlns="http://www.w3.org/2000/svg" width="16.382" height="16.382" viewBox="0 0 16.382 16.382"><defs><style>.a{fill:#fff;}</style></defs><path class="a" d="M6.314,0H1.195A1.2,1.2,0,0,0,0,1.195V4.266A1.2,1.2,0,0,0,1.195,5.461h5.12A1.2,1.2,0,0,0,7.509,4.266V1.195A1.2,1.2,0,0,0,6.314,0Zm0,0" transform="translate(0 0)"/><path class="a" d="M6.314,213.332H1.195A1.2,1.2,0,0,0,0,214.527v7.167a1.2,1.2,0,0,0,1.195,1.195h5.12a1.2,1.2,0,0,0,1.195-1.195v-7.167A1.2,1.2,0,0,0,6.314,213.332Zm0,0" transform="translate(0 -206.506)"/><path class="a" d="M283.646,341.332h-5.12a1.2,1.2,0,0,0-1.195,1.195V345.6a1.2,1.2,0,0,0,1.195,1.195h5.12a1.2,1.2,0,0,0,1.194-1.195v-3.072A1.2,1.2,0,0,0,283.646,341.332Zm0,0" transform="translate(-268.458 -330.41)"/><path class="a" d="M283.646,0h-5.12a1.2,1.2,0,0,0-1.195,1.195V8.362a1.2,1.2,0,0,0,1.195,1.195h5.12a1.2,1.2,0,0,0,1.194-1.195V1.195A1.2,1.2,0,0,0,283.646,0Zm0,0" transform="translate(-268.458 0)"/></svg>