<svg xmlns="http://www.w3.org/2000/svg" width="25.948" height="21.956" viewBox="0 0 25.948 21.956"><defs><style>.a{fill:#cd3538;}</style></defs><path class="a" d="M2.12,17.964H9.883L8.761,20.958H7.609v1H18.587v-1H17.436l-1.123-2.994h7.763a2,2,0,0,0,2-2V2a2,2,0,0,0-2-2H2.12a2,2,0,0,0-2,2V15.968a2,2,0,0,0,2,2Zm14.25,2.994H9.826l1.123-2.994h4.3Zm8.7-4.99a1,1,0,0,1-1,1H2.12a1,1,0,0,1-1-1v-1H25.074v1ZM1.122,2a1,1,0,0,1,1-1H24.076a1,1,0,0,1,1,1V13.972H1.122Zm0,0" transform="translate(-0.124 0)"/><path class="a" d="M192.574,102.6l4.99-4.99Zm5.7-4.284" transform="translate(-182.447 -92.47)"/></svg>