<svg xmlns="http://www.w3.org/2000/svg" width="29.701" height="25.542" viewBox="0 0 29.701 25.542">
  <g id="Group_169" data-name="Group 169" transform="translate(156.872 -496.599)">
    <path id="Path_276" data-name="Path 276" d="M-123.481,516.984a4.445,4.445,0,0,1-.449.551q-4.255,3.825-8.52,7.64a1.461,1.461,0,0,1-1.4.417,1.358,1.358,0,0,1-.985-.936q-.755-2.248-1.493-4.5a.794.794,0,0,1,.258-.936.77.77,0,0,1,.9-.026,1.69,1.69,0,0,1,.339.353c.523.693,1.039,1.393,1.56,2.087.206.273.145.256.415.072q3.961-2.7,7.919-5.4c.088-.06.174-.123.266-.177a.772.772,0,0,1,1.126.328c.021.042.048.081.072.122Z" transform="translate(-3.69 -3.495)" fill="#fff"/>
    <path id="Path_277" data-name="Path 277" d="M-156.869,508.6q0-5.538,0-11.076a.826.826,0,0,1,.426-.821.958.958,0,0,1,.415-.094c.58-.01,1.159,0,1.74,0q9.93,0,19.86,0a1.409,1.409,0,0,1,.511.058.778.778,0,0,1,.505.8c-.006,1.179,0,2.358,0,3.537q0,6.452,0,12.9c0,.116,0,.233-.006.348a.777.777,0,0,1-.743.714.772.772,0,0,1-.79-.661,3.353,3.353,0,0,1-.023-.463q0-7.61,0-15.22c0-.489.058-.448-.452-.448l-8.929,0h-10.553c-.433,0-.385-.027-.385.394q0,9.306,0,18.613c0,.521,0,1.044,0,1.565,0,.268,0,.271.274.271h4.377q4.523,0,9.046,0a.884.884,0,0,1,.829.371.768.768,0,0,1-.6,1.194c-.3.018-.6.007-.9.007q-6.843,0-13.685,0a.819.819,0,0,1-.817-.433,1.1,1.1,0,0,1-.093-.473c-.007-1.43,0-2.861,0-4.29Z" fill="#fff"/>
    <path id="Path_278" data-name="Path 278" d="M-144.106,512.19q-3.044,0-6.087,0a.911.911,0,0,1-.709-.265.766.766,0,0,1,.34-1.261,1.327,1.327,0,0,1,.4-.048q6.058,0,12.115,0a.91.91,0,0,1,.736.266.706.706,0,0,1,.166.776.8.8,0,0,1-.672.524,2.276,2.276,0,0,1-.289.007Z" transform="translate(-1.037 -2.525)" fill="#fff"/>
    <path id="Path_279" data-name="Path 279" d="M-144.106,504.06c-2.029,0-4.058,0-6.086,0a.894.894,0,0,1-.707-.266.765.765,0,0,1,.37-1.268,1.374,1.374,0,0,1,.371-.041q6.057,0,12.114-.007a.918.918,0,0,1,.735.272.7.7,0,0,1,.154.8.773.773,0,0,1-.721.5c-.55.008-1.1,0-1.652.006Z" transform="translate(-1.038 -1.06)" fill="#fff"/>
    <path id="Path_280" data-name="Path 280" d="M-144.093,506.567q3.043,0,6.085,0a.848.848,0,0,1,.776.357.765.765,0,0,1-.476,1.179,2.241,2.241,0,0,1-.433.031q-5.955,0-11.91,0a1.128,1.128,0,0,1-.7-.137.763.763,0,0,1-.338-.826.79.79,0,0,1,.7-.591c.106-.007.212-.006.318-.006Z" transform="translate(-1.038 -1.795)" fill="#fff"/>
    <path id="Path_281" data-name="Path 281" d="M-144.109,516.249q-3.028,0-6.056,0a.868.868,0,0,1-.822-.378.766.766,0,0,1,.546-1.167,2.572,2.572,0,0,1,.318-.011q6.027,0,12.054-.006a.883.883,0,0,1,.866.4.77.77,0,0,1-.532,1.139,2.489,2.489,0,0,1-.376.015h-6Z" transform="translate(-1.039 -3.259)" fill="#fff"/>
    <path id="Path_282" data-name="Path 282" d="M-147.212,520.115c-1.024,0-2.048,0-3.072,0a.8.8,0,0,1-.792-.559.776.776,0,0,1,.552-.967,1.229,1.229,0,0,1,.315-.038q3,0,6,0a.853.853,0,0,1,.694.292.718.718,0,0,1,.128.785.757.757,0,0,1-.723.49c-.59,0-1.179,0-1.768,0Z" transform="translate(-1.038 -3.953)" fill="#fff"/>
  </g>
</svg>
