<svg xmlns="http://www.w3.org/2000/svg" width="28" height="28" viewBox="0 0 28 28">
  <path id="form" d="M23.625,14.93H4.375V8.374h19.25ZM6.563,12.742H21.438V10.561H6.563ZM23.625,4.163H4.375V6.35h19.25Zm0,14.971h-10.5v2.188h10.5ZM10.938,23.509H4.375V16.953h6.563ZM6.563,21.322H8.75V19.141H6.563ZM24.719,28H3.281A3.285,3.285,0,0,1,0,24.719V3.281A3.285,3.285,0,0,1,3.281,0H24.719A3.285,3.285,0,0,1,28,3.281V24.719A3.285,3.285,0,0,1,24.719,28ZM3.281,2.188A1.1,1.1,0,0,0,2.188,3.281V24.719a1.1,1.1,0,0,0,1.094,1.094H24.719a1.1,1.1,0,0,0,1.094-1.094V3.281a1.1,1.1,0,0,0-1.094-1.094Zm0,0" fill="#fff"/>
</svg>
