<svg xmlns="http://www.w3.org/2000/svg" width="27" height="31.156" viewBox="0 0 27 31.156">
  <path id="Path_275" data-name="Path 275" d="M-537.219,329.412c-.605,0-1.172,0-1.74,0a2.316,2.316,0,0,1-.4-.019.621.621,0,0,1-.4-.983,1.823,1.823,0,0,1,.208-.229l4.108-4.109c.454-.454.766-.458,1.212-.012q2.077,2.076,4.153,4.151a.7.7,0,0,1,.246.8.68.68,0,0,1-.733.406c-.579-.006-1.159,0-1.794,0,0,.2,0,.4,0,.586,0,.487.018.974,0,1.46-.012.249.088.334.309.393q4.284,1.146,8.565,2.3c.489.132.979.262,1.467.395.559.152.687.319.687.9q0,5.282,0,10.564c0,1.036,0,2.072,0,3.107a2.2,2.2,0,0,1-1.654,2.243q-5.756,1.748-11.519,3.474a1.22,1.22,0,0,1-.661-.008q-5.75-1.717-11.492-3.458a2.217,2.217,0,0,1-1.668-2.235q-.005-6.851,0-13.7c0-.573.121-.731.666-.878,3.344-.9,6.686-1.807,10.034-2.693.336-.089.439-.224.423-.562C-537.24,330.686-537.219,330.067-537.219,329.412Zm1.751,24V353q0-6.727.006-13.454a.391.391,0,0,0-.349-.46q-5.094-1.358-10.184-2.735c-.347-.093-.694-.182-1.078-.283v.38q0,6.261,0,12.522c0,.747.2,1.01.922,1.228l7.778,2.35C-537.424,352.831-536.474,353.114-535.468,353.416Zm1.263-.008c.141-.037.24-.06.337-.089q5.21-1.571,10.42-3.143a1.011,1.011,0,0,0,.845-1.132q0-6.338,0-12.676c0-.088-.012-.177-.019-.28-.074.011-.126.014-.174.027q-5.569,1.5-11.14,3c-.24.064-.274.178-.274.388q.007,4.893,0,9.787ZM-545.141,335.2l0,.064q5.06,1.361,10.121,2.717a.858.858,0,0,0,.421-.014q3.431-.912,6.859-1.836c1.064-.286,2.127-.578,3.191-.867l.007-.065-7.781-2.1a.436.436,0,0,0-.034.094c0,.3,0,.6-.007.9-.006.548-.228.776-.775.778q-1.631.007-3.261,0c-.617,0-.818-.206-.821-.82,0-.314,0-.629,0-.985Zm10.316-9.859-2.8,2.8c.286,0,.581,0,.876,0,.566,0,.793.227.793.79q0,2.159,0,4.318v.338h2.307v-.3s0-2.837,0-4.255c0-.691.2-.894.881-.895h.725Z" transform="translate(548.336 -323.727)" fill="#fff"/>
</svg>
