<svg xmlns="http://www.w3.org/2000/svg" width="31.168" height="35.529" viewBox="0 0 31.168 35.529"><g id="furniture-and-household" transform="translate(-2.1)"><g id="Group_1272" data-name="Group 1272" transform="translate(13.833 4.574)"><g id="Group_1271" data-name="Group 1271"><path id="Path_419" fill="#77787b" d="M119.229,43h-5.978a.851.851,0,1,0,0,1.7h5.978a.851.851,0,0,0,0-1.7Z" data-name="Path 419" transform="translate(-112.4 -43)"/></g></g><g id="Group_1274" data-name="Group 1274" transform="translate(2.1)"><g id="Group_1273" data-name="Group 1273" transform="translate(0)"><path id="Path_420" fill="#77787b" d="M29.811,0H5.536A3.455,3.455,0,0,0,2.1,3.436v7.1H33.268v-7.1A3.473,3.473,0,0,0,29.811,0ZM20.662,7.978H14.684a2.553,2.553,0,0,1,0-5.106h5.978a2.553,2.553,0,0,1,0,5.106Z" data-name="Path 420" transform="translate(-2.1)"/></g></g><g id="Group_1276" data-name="Group 1276" transform="translate(13.844 29.253)"><g id="Group_1275" data-name="Group 1275"><path id="Path_421" fill="#77787b" d="M113.351,276.7h5.978a.851.851,0,1,0,0-1.7h-5.978a.851.851,0,1,0,0,1.7Z" data-name="Path 421" transform="translate(-112.5 -275)"/></g></g><g id="Group_1278" data-name="Group 1278" transform="translate(2.1 24.998)"><g id="Group_1277" data-name="Group 1277" transform="translate(0)"><path id="Path_422" fill="#77787b" d="M5.547,245.531H29.821a3.471,3.471,0,0,0,3.447-3.436V235H2.1v7.1A3.464,3.464,0,0,0,5.547,245.531Zm9.148-7.978h5.978a2.553,2.553,0,1,1,0,5.106H14.695a2.553,2.553,0,1,1,0-5.106Z" data-name="Path 422" transform="translate(-2.1 -235)"/></g></g><g id="Group_1280" data-name="Group 1280" transform="translate(13.833 16.914)"><g id="Group_1279" data-name="Group 1279"><path id="Path_423" fill="#77787b" d="M119.229,159h-5.978a.851.851,0,1,0,0,1.7h5.978a.851.851,0,1,0,0-1.7Z" data-name="Path 423" transform="translate(-112.4 -159)"/></g></g><g id="Group_1282" data-name="Group 1282" transform="translate(2.1 12.233)"><g id="Group_1281" data-name="Group 1281" transform="translate(0)"><path id="Path_424" fill="#77787b" d="M2.1,115v11.063l31.168.053V115Zm18.562,8.084H14.684a2.553,2.553,0,1,1,0-5.106h5.978a2.553,2.553,0,1,1,0,5.106Z" data-name="Path 424" transform="translate(-2.1 -115)"/></g></g></g></svg>