<svg id="image" xmlns="http://www.w3.org/2000/svg" width="43.333" height="43.333" viewBox="0 0 43.333 43.333">
  <path id="Path_227" data-name="Path 227" d="M31.6,0H11.73A11.743,11.743,0,0,0,0,11.73V31.6a11.743,11.743,0,0,0,11.73,11.73H31.6A11.743,11.743,0,0,0,43.333,31.6V11.73A11.743,11.743,0,0,0,31.6,0Zm9.189,31.6A9.2,9.2,0,0,1,31.6,40.793H11.73A9.2,9.2,0,0,1,2.54,31.6v-.111l7.286-6.707a.547.547,0,0,1,.736,0L16.138,29.9a3.084,3.084,0,0,0,4.58-.458l9.839-13.529a.544.544,0,0,1,.834-.055l9.4,9.907V31.6Zm0-9.526-7.559-7.965a3.084,3.084,0,0,0-4.731.309L18.663,27.95a.544.544,0,0,1-.807.081l-5.575-5.118a3.1,3.1,0,0,0-4.175,0L2.54,28.039V11.73A9.2,9.2,0,0,1,11.73,2.54H31.6a9.2,9.2,0,0,1,9.189,9.189Zm0,0" transform="translate(0)" fill="#cd3538"/>
  <path id="Path_228" data-name="Path 228" d="M94.628,86.734A4.464,4.464,0,1,0,99.092,91.2,4.47,4.47,0,0,0,94.628,86.734Zm0,6.388A1.924,1.924,0,1,1,96.552,91.2,1.926,1.926,0,0,1,94.628,93.122Zm0,0" transform="translate(-82.533 -79.394)" fill="#cd3538"/>
</svg>
