<svg xmlns="http://www.w3.org/2000/svg" width="63" height="62" viewBox="0 0 63 62"><g id="Group_426" data-name="Group 426" transform="translate(-1342 -451)"><path id="Path_238" fill="#fff" d="M5,0H56a6,6,0,0,1,6,6V56a6,6,0,0,1-6,6H5a6,6,0,0,1-6-6V6A6,6,0,0,1,5,0Z" data-name="Path 238" transform="translate(1343 451)"/><g id="Group_132" data-name="Group 132" transform="translate(2254.316 -533.455)"><path id="Path_232" fill="#cd3538" d="M-728.023,1188.882q4.631,0,9.261,0a2.657,2.657,0,0,1,2.7,2.417,2.672,2.672,0,0,1-2.222,2.864,2.255,2.255,0,0,1-.413.034q-9.324,0-18.647-.005a2.5,2.5,0,0,1-2.414-1.6,2.517,2.517,0,0,1,.425-2.792,2.6,2.6,0,0,1,2.091-.925Q-732.633,1188.886-728.023,1188.882Z" data-name="Path 232" transform="translate(-146.266 -175.706)"/><path id="Path_233" fill="#cd3538" d="M-727.807,1348.563c3.1,0,6.2-.007,9.3,0a2.651,2.651,0,0,1,2.605,2.335,2.655,2.655,0,0,1-1.856,2.851,3.019,3.019,0,0,1-.857.123q-9.22.01-18.441,0a2.655,2.655,0,0,1-2.764-2.65,2.659,2.659,0,0,1,2.788-2.667Q-732.417,1348.56-727.807,1348.563Z" data-name="Path 233" transform="translate(-146.439 -322.09)"/><path id="Path_234" fill="#cd3538" d="M-727.983,1034.5c-3.115,0-6.229.012-9.344-.007a2.509,2.509,0,0,1-2.42-1.588,2.516,2.516,0,0,1,.441-2.824,2.626,2.626,0,0,1,2.1-.9q6.4.008,12.791,0c1.883,0,3.765,0,5.648,0a2.661,2.661,0,0,1,2.708,2.408,2.667,2.667,0,0,1-2.211,2.87,3.36,3.36,0,0,1-.62.038Q-723.436,1034.5-727.983,1034.5Z" data-name="Path 234" transform="translate(-146.273 -29.303)"/><path id="Path_235" fill="#cd3538" d="M-899.541,1321.885c0-.886-.008-1.771,0-2.657a2.644,2.644,0,0,1,2.639-2.646q2.678-.019,5.356,0a2.647,2.647,0,0,1,2.637,2.65q.016,2.657,0,5.314a2.645,2.645,0,0,1-2.661,2.668q-2.657.016-5.314,0a2.655,2.655,0,0,1-2.66-2.671c-.006-.886,0-1.771,0-2.657Zm2.688-2.628v5.267h5.268v-5.267Z" data-name="Path 235" transform="translate(-0.01 -292.766)"/><path id="Path_236" fill="#cd3538" d="M-899.539,1162.165c0-.872-.009-1.744,0-2.615a2.645,2.645,0,0,1,2.671-2.657q2.657-.019,5.314,0a2.646,2.646,0,0,1,2.646,2.641q.021,2.678,0,5.355a2.641,2.641,0,0,1-2.65,2.635q-2.657.017-5.313,0a2.656,2.656,0,0,1-2.671-2.7c0-.885,0-1.771,0-2.657Zm2.677,2.672h5.267v-5.267h-5.267Z" data-name="Path 236" transform="translate(-0.011 -146.372)"/><path id="Path_237" fill="#cd3538" d="M-888.915,1002.526c0,.872.006,1.743,0,2.615a2.653,2.653,0,0,1-2.7,2.714q-2.615.014-5.23,0a2.654,2.654,0,0,1-2.705-2.709q-.008-2.573,0-5.147a2.65,2.65,0,0,1,2.761-2.776q2.594-.012,5.188,0a2.656,2.656,0,0,1,2.684,2.689C-888.908,1000.783-888.915,1001.654-888.915,1002.526Zm-2.675-2.615h-5.282v5.264h5.282Z" data-name="Path 237"/></g></g></svg>