<svg xmlns="http://www.w3.org/2000/svg" width="16.1" height="14.372" viewBox="0 0 16.1 14.372"><defs><style>.a{fill:#fff;}</style></defs><path class="a" d="M15.429,124.326H.671a.848.848,0,0,1,0-1.658H15.429a.848.848,0,0,1,0,1.658Zm0,0" transform="translate(0 -116.311)"/><path class="a" d="M15.429,1.658H.671A.763.763,0,0,1,0,.829.763.763,0,0,1,.671,0H15.429A.763.763,0,0,1,16.1.829.763.763,0,0,1,15.429,1.658Zm0,0"/><path class="a" d="M15.429,246.99H.671a.848.848,0,0,1,0-1.658H15.429a.848.848,0,0,1,0,1.658Zm0,0" transform="translate(0 -232.618)"/></svg>