<svg xmlns="http://www.w3.org/2000/svg" width="17.483" height="20.879" viewBox="0 0 17.483 20.879"><defs><style>.a{fill:#535353;stroke:#535353;stroke-width:0.5px;}</style></defs><g transform="translate(-42.417 0.25)"><g transform="translate(42.667)"><path class="a" d="M57.951,3.4a1.687,1.687,0,0,0-.849.228V2.547A1.7,1.7,0,0,0,54.46,1.136a1.7,1.7,0,0,0-3.206,0,1.7,1.7,0,0,0-2.643,1.411V13.061a.425.425,0,0,1-.614.38L45.27,12.078a1.8,1.8,0,0,0-2.6,1.609v.324a.426.426,0,0,0,.135.311l4.9,4.574a5.5,5.5,0,0,0,3.766,1.484H54.13A5.526,5.526,0,0,0,59.65,14.86V5.095A1.7,1.7,0,0,0,57.951,3.4ZM58.8,14.86a4.676,4.676,0,0,1-4.67,4.67H51.468a4.654,4.654,0,0,1-3.186-1.256l-4.766-4.448v-.14a.949.949,0,0,1,1.374-.849L47.617,14.2a1.274,1.274,0,0,0,1.843-1.139V2.547a.849.849,0,0,1,1.7,0V8.067a.425.425,0,1,0,.849,0V1.7a.849.849,0,1,1,1.7,0V8.067a.425.425,0,0,0,.849,0V2.547a.849.849,0,0,1,1.7,0V9.341a.428.428,0,0,0,.236.381h0l.006,0h.009s0,0,0,0A.424.424,0,0,0,57.1,9.3V5.095a.849.849,0,1,1,1.7,0Z" transform="translate(-42.667)"/></g></g></svg>