<svg xmlns="http://www.w3.org/2000/svg" width="22.082" height="20.828" viewBox="0 0 22.082 20.828"><defs><style>.a{fill:#535353;}</style></defs><path class="a" d="M6.023,20.83a1,1,0,0,1-1-1c0-.03,0-.059,0-.088s0-.052,0-.078v-3.43H1a1,1,0,0,1-1-1,.934.934,0,0,1,.014-.167A.941.941,0,0,1,0,14.891V6.025a1,1,0,0,1,1-1H5.018V1.005a1,1,0,0,1,1-1h9.7a1.033,1.033,0,0,1,.167.014A1.033,1.033,0,0,1,16.06,0a1,1,0,0,1,1,1V5.02h3.681a1.033,1.033,0,0,1,.167.013,1.007,1.007,0,0,1,1.171.991v8.866a1,1,0,0,1-.481.857,1,1,0,0,1-.858.481H17.063v3.43a1,1,0,0,1-.731.966,1,1,0,0,1-.608.2Zm9.033-2.008V12.465H7.026v6.357Zm5.018-4.6V7.028H2.007v7.194H5.019V11.629q0-.04,0-.079c0-.029,0-.059,0-.089a1,1,0,0,1,1-1h9.7a1,1,0,0,1,.608.205,1,1,0,0,1,.73.967v2.593ZM7.026,5.02h8.03V2.009H7.026ZM9.7,16.647a1,1,0,0,1,0-2.008H12.38a1,1,0,0,1,0,2.008Z" transform="translate(0 -0.002)"/></svg>