<svg xmlns="http://www.w3.org/2000/svg" width="38.439" height="38.533" viewBox="0 0 38.439 38.533">
  <g id="Group_188" data-name="Group 188" transform="translate(1206.336 -926.691)">
    <path id="Path_308" data-name="Path 308" d="M-1195.763,940.1a13.912,13.912,0,0,1,15.5-13.046,13.882,13.882,0,0,1,12.118,13.678,13.855,13.855,0,0,1-13.1,13.875v.577q0,4.352,0,8.7c0,.88-.2,1.088-1.054,1.088q-11.366,0-22.73,0c-.867,0-1.06-.2-1.06-1.077q0-11.36,0-22.72c0-.9.179-1.078,1.1-1.078h9.225Zm13.786,13.09a12.363,12.363,0,0,0,12.457-12.482,12.4,12.4,0,0,0-12.457-12.351,12.4,12.4,0,0,0-12.383,12.579A12.369,12.369,0,0,0-1181.977,953.188Zm-.682,1.489c-7.721-1.114-12.068-5.483-13.152-13.177h-8.845v22.057h22Z" fill="#cd3538" stroke="#cd3538" stroke-width="0.5"/>
    <circle id="Ellipse_24" data-name="Ellipse 24" cx="5.364" cy="5.364" r="5.364" transform="translate(-1187.304 935.613)" fill="#cd3538" stroke="#cd3538" stroke-width="0.5"/>
    <g id="Group_189" data-name="Group 189" transform="translate(-1201.197 947.063)">
      <g id="Group_188-2" data-name="Group 188" transform="translate(0 0)">
        <path id="Path_309" data-name="Path 309" d="M-1141.324,1125.881a.835.835,0,0,0-1.181,0l-10,10-3.845-3.845a.835.835,0,0,0-1.181,0,.835.835,0,0,0,0,1.181l4.435,4.435a.835.835,0,0,0,1.181,0l10.594-10.594A.835.835,0,0,0-1141.324,1125.881Z" transform="translate(1157.779 -1125.636)" fill="#cd3538" stroke="#cd3538" stroke-width="0.5"/>
      </g>
    </g>
  </g>
</svg>
