<svg xmlns="http://www.w3.org/2000/svg" width="12.616" height="20.948" viewBox="0 0 12.616 20.948"><defs><style>.a{fill:#535353;}</style></defs><g transform="translate(0)"><path class="a" d="M109.966,19.317V1.626A1.628,1.628,0,0,0,108.34,0H98.976A1.628,1.628,0,0,0,97.35,1.626v17.7a1.628,1.628,0,0,0,1.626,1.626h9.363A1.635,1.635,0,0,0,109.966,19.317ZM98.4,3.77h10.514V15.675H98.4Zm.578-2.722h9.363a.578.578,0,0,1,.578.578v1.1H98.4v-1.1A.578.578,0,0,1,98.976,1.048ZM98.4,19.317v-2.6h10.514v2.6a.578.578,0,0,1-.578.578H98.976A.578.578,0,0,1,98.4,19.317Z" transform="translate(-97.35)"/><path class="a" d="M210.2,416.6h-2.127a.526.526,0,1,0,0,1.053H210.2a.526.526,0,1,0,0-1.053Z" transform="translate(-202.834 -398.772)"/></g></svg>