<svg xmlns="http://www.w3.org/2000/svg" width="28" height="28" viewBox="0 0 28 28"><defs><style>.a{fill:#535353;}</style></defs><g transform="translate(0)"><path class="a" d="M24.992,0H3.007A3.011,3.011,0,0,0,0,3.008V24.992A3.011,3.011,0,0,0,3.007,28H24.992A3.011,3.011,0,0,0,28,24.992V3.008A3.011,3.011,0,0,0,24.992,0ZM3.007,1.641H24.992a1.369,1.369,0,0,1,1.367,1.367v3.61H1.641V3.008A1.369,1.369,0,0,1,3.008,1.641ZM24.992,26.359H3.007a1.369,1.369,0,0,1-1.367-1.367V8.258H26.359V24.992a1.369,1.369,0,0,1-1.367,1.367Zm0,0"/><path class="a" d="M422.641,61.82a.82.82,0,1,1-.82-.82A.82.82,0,0,1,422.641,61.82Zm0,0" transform="translate(-397.977 -57.664)"/><path class="a" d="M362.641,61.82a.82.82,0,1,1-.82-.82A.82.82,0,0,1,362.641,61.82Zm0,0" transform="translate(-341.258 -57.664)"/><path class="a" d="M302.641,61.82a.82.82,0,1,1-.82-.82A.82.82,0,0,1,302.641,61.82Zm0,0" transform="translate(-284.539 -57.664)"/><path class="a" d="M81.508,181H61.82a.82.82,0,0,0-.82.82v4.922a.82.82,0,0,0,.82.82H81.508a.82.82,0,0,0,.82-.82V181.82A.82.82,0,0,0,81.508,181Zm-.82,4.922H62.641v-3.281H80.687Zm0,0" transform="translate(-57.664 -171.102)"/><path class="a" d="M70.023,331h-8.2a.82.82,0,0,0-.82.82v4.922a.82.82,0,0,0,.82.82h8.2a.82.82,0,0,0,.82-.82V331.82A.82.82,0,0,0,70.023,331Zm-.82,4.922H62.641v-3.281H69.2Zm0,0" transform="translate(-57.664 -312.898)"/><path class="a" d="M280.023,331h-8.2a.82.82,0,0,0-.82.82v4.922a.82.82,0,0,0,.82.82h8.2a.82.82,0,0,0,.82-.82V331.82A.82.82,0,0,0,280.023,331Zm-.82,4.922h-6.562v-3.281H279.2Zm0,0" transform="translate(-256.18 -312.898)"/></g></svg>