<svg xmlns="http://www.w3.org/2000/svg" width="44.01" height="44" viewBox="0 0 44.01 44"><g id="Group_131" data-name="Group 131" transform="translate(398.164 -343.785)"><path id="Path_230" fill="#cd3538" d="M-373.768,384.654a.758.758,0,0,0-.029.145c.1,1.269-.309,1.461-1.445,1.413-.719-.03-1.44-.005-2.16-.006-.88,0-1.113-.229-1.115-1.092,0-.143,0-.286,0-.454h-11.847a4.013,4.013,0,0,1-2.033,2.658,3.732,3.732,0,0,1-2.374.416,3.922,3.922,0,0,1-3.364-3.464c-.228-1.925.83-3.4,3.105-4.307V368.144c-.257,0-.5.01-.735,0a.763.763,0,0,1-.811-.8q-.024-1.546,0-3.092a.774.774,0,0,1,.842-.819c.224-.009.45,0,.7,0V351.578a3.96,3.96,0,0,1-2.659-2.026,3.727,3.727,0,0,1-.417-2.374,3.933,3.933,0,0,1,3.465-3.364c1.929-.227,3.394.826,4.308,3.105h11.825c0-.255-.01-.495,0-.733a.765.765,0,0,1,.8-.813q1.546-.024,3.092,0a.772.772,0,0,1,.821.839c.009.225,0,.451,0,.7h11.847a4,4,0,0,1,2.031-2.657,3.73,3.73,0,0,1,2.374-.417,3.92,3.92,0,0,1,3.37,3.512c.194,1.917-.854,3.357-3.11,4.259v11.82c.256,0,.495-.009.733,0a.763.763,0,0,1,.813.8q.024,1.546,0,3.092a.776.776,0,0,1-.84.822c-.225.009-.45,0-.7,0v11.85a3.957,3.957,0,0,1,2.657,2.028,3.728,3.728,0,0,1,.417,2.373,3.931,3.931,0,0,1-3.513,3.369c-1.919.193-3.361-.857-4.259-3.109Zm14.857-4.66V368.143c-.214,0-.392,0-.571,0-.681-.009-.963-.28-.966-.945q-.007-1.4,0-2.8c0-.681.277-.958.944-.968.192,0,.384,0,.6,0V351.575a4.007,4.007,0,0,1-3.052-3.04H-373.8c0,.218,0,.411,0,.6-.012.647-.287.935-.924.94-.966.008-1.931.01-2.9,0a.792.792,0,0,1-.89-.872c-.007-.222,0-.445,0-.682h-11.827c-.748,1.916-1.133,2.3-3.063,3.078v11.828c.213,0,.392,0,.571,0,.681.009.962.278.966.945q.008,1.4,0,2.8c0,.679-.28.957-.946.968-.192,0-.384,0-.6,0V380a4,4,0,0,1,3.051,3.043h11.849c0-.219,0-.411,0-.6.011-.648.285-.933.924-.938q1.448-.011,2.9,0a.791.791,0,0,1,.891.871c.007.222,0,.445,0,.683h11.85A4.021,4.021,0,0,1-358.91,379.994Z" data-name="Path 230" transform="translate(0)"/><path id="Path_231" fill="#cd3538" d="M-310.5,422.029v4.831c0,2.781.008,5.562-.009,8.343a.647.647,0,0,0,.441.7c.714.323,1.4.706,2.108,1.043a.947.947,0,0,1,.607.963c-.016.687,0,1.374,0,2.061a.8.8,0,0,1-.9.909q-5.375.006-10.75,0a.8.8,0,0,1-.912-.9c-.009-.7.008-1.407-.006-2.11a.9.9,0,0,1,.556-.895c.763-.374,1.528-.744,2.278-1.144a.606.606,0,0,0,.3-.421c.016-4.432.013-8.865.013-13.327a2.558,2.558,0,0,0-.339-.047c-1.505,0-3.011-.011-4.516.007a1.433,1.433,0,0,0-.55.23.821.821,0,0,0-.175.17c-1.243,1.239-1.243,1.239-2.993,1.16a.785.785,0,0,1-.852-.861q-.011-3.067,0-6.135c0-.582.319-.855.955-.856q4,0,8,0h15.07c.875,0,1.108.233,1.108,1.1q0,2.871,0,5.742c0,.74-.269,1.021-1,1.011-2.068-.027-1.391.265-2.838-1.166a1.24,1.24,0,0,0-.978-.413C-307.4,422.045-308.923,422.029-310.5,422.029Z" data-name="Path 231" transform="translate(-62.519 -62.525)"/></g></svg>