<svg xmlns="http://www.w3.org/2000/svg" width="20.745" height="23.565" viewBox="0 0 20.745 23.565">
  <g id="Group_1238" data-name="Group 1238" transform="translate(483.19 -307.749)" opacity="0.5">
    <path id="Path_346" data-name="Path 346" d="M-478.718,331.314a2.454,2.454,0,0,1-1.208-.617,2.392,2.392,0,0,1-.632-1.584c-.193-2.384-.394-4.767-.591-7.151q-.218-2.636-.432-5.272c-.054-.657-.109-1.314-.175-1.97a.312.312,0,0,0-.142-.218,2.078,2.078,0,0,1-1.242-2.363,2.1,2.1,0,0,1,2.123-1.625c1.03,0,2.059,0,3.089,0h.27c0-.218,0-.416,0-.613a2.08,2.08,0,0,1,2.154-2.147q2.685-.009,5.371,0a2.08,2.08,0,0,1,2.157,2.144c0,.2,0,.395,0,.616h.57c.937,0,1.875,0,2.812,0a2.063,2.063,0,0,1,2.065,1.515,2.039,2.039,0,0,1-1.124,2.428.336.336,0,0,0-.238.332c-.126,1.589-.261,3.178-.394,4.767q-.222,2.658-.444,5.316c-.115,1.39-.24,2.78-.338,4.172a2.226,2.226,0,0,1-.946,1.893,5.578,5.578,0,0,1-.9.378Zm13.447-16.639h-15.089c.026.326.049.632.074.937q.192,2.337.386,4.674.2,2.371.4,4.743c.114,1.375.222,2.75.341,4.124.05.571.294.78.867.78h11.016a.707.707,0,0,0,.8-.7c.013-.1.018-.2.027-.3q.078-.951.156-1.9.2-2.383.4-4.766.175-2.1.35-4.193C-465.455,316.944-465.364,315.814-465.271,314.675Zm-7.545-2.782h-8.115c-.55,0-.876.258-.875.691s.322.689.876.689H-467.1c.845,0,1.691,0,2.536,0a.7.7,0,0,0,.689-.443.7.7,0,0,0-.736-.936Zm3.458-1.389c0-.227,0-.433,0-.639a.694.694,0,0,0-.739-.733c-.345,0-.691,0-1.036,0q-2.187,0-4.375,0a.682.682,0,0,0-.749.57,6.661,6.661,0,0,0-.006.8Z" transform="translate(0)"/>
    <path id="Path_347" data-name="Path 347" d="M-385.085,463.081c.027.591-.43.975-.929.779a.666.666,0,0,1-.445-.615q-.118-1.824-.23-3.648-.178-2.856-.354-5.713c-.036-.589-.077-1.178-.1-1.767a.651.651,0,0,1,.386-.652.6.6,0,0,1,.709.078.881.881,0,0,1,.272.5c.111,1.49.2,2.982.289,4.473q.175,2.8.351,5.6C-385.121,462.439-385.1,462.76-385.085,463.081Z" transform="translate(-90.506 -135.357)"/>
    <path id="Path_348" data-name="Path 348" d="M-253.118,452.287c-.136,2.173-.267,4.269-.4,6.364q-.146,2.34-.288,4.681a.7.7,0,0,1-.442.666.649.649,0,0,1-.726-.139.714.714,0,0,1-.217-.605q.1-1.595.2-3.19.129-2.065.26-4.13c.078-1.247.153-2.493.235-3.74a.685.685,0,0,1,.739-.659A.685.685,0,0,1-253.118,452.287Z" transform="translate(-214.857 -135.498)"/>
    <path id="Path_349" data-name="Path 349" d="M-313.836,457.82q0,2.736,0,5.472a.7.7,0,0,1-.93.722.7.7,0,0,1-.452-.726q0-1.759,0-3.518,0-3.679,0-7.357a2.262,2.262,0,0,1,.006-.253.69.69,0,0,1,.71-.616.685.685,0,0,1,.664.69c.009.628,0,1.257,0,1.885q0,1.851,0,3.7Z" transform="translate(-158.288 -135.507)"/>
  </g>
</svg>
