<svg xmlns="http://www.w3.org/2000/svg" width="135.333" height="108" viewBox="0 0 135.333 108"><g id="Group_365" data-name="Group 365" transform="translate(-900 -411)"><path id="picture" fill="#d1d1d1" d="M86.633,16H3.767A3.767,3.767,0,0,0,0,19.767v67.8a3.767,3.767,0,0,0,3.767,3.767H86.633A3.767,3.767,0,0,0,90.4,87.567v-67.8A3.767,3.767,0,0,0,86.633,16Zm-33.9,15.067a11.3,11.3,0,1,1-11.3,11.3,11.3,11.3,0,0,1,11.3-11.3ZM82.867,83.8H7.533V49.9L22.6,31.067,52.733,72.5,71.567,57.433l11.3,11.3Z" transform="translate(922 411)"/><g id="Path_363" fill="none" stroke-dasharray="10 5" data-name="Path 363"><path stroke="none" d="M0,0H135.333V108H0Z" transform="translate(900 411)"/><path fill="#707070" stroke="none" d="M 15 0 L 25 0 L 25 1 L 15 1 L 15 0 Z M 30 0 L 40 0 L 40 1 L 30 1 L 30 0 Z M 45 0 L 55 0 L 55 1 L 45 1 L 45 0 Z M 60 0 L 70 0 L 70 1 L 60 1 L 60 0 Z M 75 0 L 85 0 L 85 1 L 75 1 L 75 0 Z M 90 0 L 100 0 L 100 1 L 90 1 L 90 0 Z M 105 0 L 115 0 L 115 1 L 105 1 L 105 0 Z M 120 0 L 130 0 L 130 1 L 120 1 L 120 0 Z M 134.33349609375 0 L 135.33349609375 0 L 135.33349609375 1 L 135.33349609375 1 C 135.33349609375 3.470916748046875 135.33349609375 9.666511535644531 135.33349609375 9.666511535644531 L 134.33349609375 9.666511535644531 L 134.33349609375 0 Z M 134.33349609375 14.66651153564453 L 135.33349609375 14.66651153564453 C 135.33349609375 14.66651153564453 135.33349609375 24.66651153564453 135.33349609375 24.66651153564453 L 134.33349609375 24.66651153564453 L 134.33349609375 14.66651153564453 Z M 134.33349609375 29.66651153564453 L 135.33349609375 29.66651153564453 C 135.33349609375 29.66651153564453 135.33349609375 39.66651153564453 135.33349609375 39.66651153564453 L 134.33349609375 39.66651153564453 L 134.33349609375 29.66651153564453 Z M 134.33349609375 44.66650772094727 L 135.33349609375 44.66650772094727 C 135.33349609375 44.66650772094727 135.33349609375 54.66650772094727 135.33349609375 54.66650772094727 L 134.33349609375 54.66650772094727 L 134.33349609375 44.66650772094727 Z M 134.33349609375 59.66650772094727 L 135.33349609375 59.66650772094727 C 135.33349609375 59.66650772094727 135.33349609375 69.66650390625 135.33349609375 69.66650390625 L 134.33349609375 69.66650390625 L 134.33349609375 59.66650772094727 Z M 134.33349609375 74.66650390625 L 135.33349609375 74.66650390625 C 135.33349609375 74.66650390625 135.33349609375 84.66651153564453 135.33349609375 84.66651153564453 L 134.33349609375 84.66651153564453 L 134.33349609375 74.66650390625 Z M 134.33349609375 89.66651153564453 L 135.33349609375 89.66651153564453 C 135.33349609375 89.66651153564453 135.33349609375 99.66651153564453 135.33349609375 99.66651153564453 L 134.33349609375 99.66651153564453 L 134.33349609375 89.66651153564453 Z M 134.33349609375 104.6665115356445 L 135.33349609375 104.6665115356445 C 135.33349609375 104.6665115356445 135.33349609375 108 135.33349609375 108 L 134.33349609375 108 L 134.33349609375 108 L 134.33349609375 108 L 134.33349609375 108 L 134.33349609375 108 C 132.4730987548828 108 128.6669921875 108 128.6669921875 108 L 128.6669921875 107 L 134.33349609375 107 L 134.33349609375 104.6665115356445 Z M 113.6669845581055 107 L 123.6669845581055 107 L 123.6669845581055 108 C 123.6669845581055 108 113.6669845581055 108 113.6669845581055 108 L 113.6669845581055 107 Z M 98.66698455810547 107 L 108.6669845581055 107 L 108.6669845581055 108 C 108.6669845581055 108 98.66698455810547 108 98.66698455810547 108 L 98.66698455810547 107 Z M 83.66698455810547 107 L 93.66698455810547 107 L 93.66698455810547 108 C 93.66698455810547 108 83.66698455810547 108 83.66698455810547 108 L 83.66698455810547 107 Z M 68.66698455810547 107 L 78.66698455810547 107 L 78.66698455810547 108 C 78.66698455810547 108 68.66698455810547 108 68.66698455810547 108 L 68.66698455810547 107 Z M 53.66698455810547 107 L 63.66698455810547 107 L 63.66698455810547 108 C 63.66698455810547 108 53.66698455810547 108 53.66698455810547 108 L 53.66698455810547 107 Z M 38.66698455810547 107 L 48.66698455810547 107 L 48.66698455810547 108 C 48.66698455810547 108 38.66698455810547 108 38.66698455810547 108 L 38.66698455810547 107 Z M 23.66698455810547 107 L 33.66698455810547 107 L 33.66698455810547 108 C 33.66698455810547 108 23.66698455810547 108 23.66698455810547 108 L 23.66698455810547 107 Z M 8.666984558105469 107 L 18.66698455810547 107 L 18.66698455810547 108 C 18.66698455810547 108 8.666984558105469 108 8.666984558105469 108 L 8.666984558105469 107 Z M 0 101.6669845581055 L 1 101.6669845581055 L 1 107 L 3.666976928710938 107 L 3.666976928710938 108 C 3.666976928710938 108 0 108 0 108 L 0 101.6669845581055 Z M 0 86.66698455810547 L 1 86.66698455810547 L 1 96.66698455810547 L 0 96.66698455810547 L 0 86.66698455810547 Z M 0 71.66697692871094 L 1 71.66697692871094 L 1 81.66698455810547 L 0 81.66698455810547 L 0 71.66697692871094 Z M 0 56.6669807434082 L 1 56.6669807434082 L 1 66.66697692871094 L 0 66.66697692871094 L 0 56.6669807434082 Z M 0 41.66698455810547 L 1 41.66698455810547 L 1 51.6669807434082 L 0 51.6669807434082 L 0 41.66698455810547 Z M 0 26.66698455810547 L 1 26.66698455810547 L 1 36.66698455810547 L 0 36.66698455810547 L 0 26.66698455810547 Z M 0 11.66698455810547 L 1 11.66698455810547 L 1 21.66698455810547 L 0 21.66698455810547 L 0 11.66698455810547 Z M 0 0 L 10 0 L 10 1 L 1 1 L 1 6.666984558105469 L 0 6.666984558105469 L 0 0 Z" transform="translate(900 411)"/></g><g id="Group_364" data-name="Group 364" transform="translate(-11 1)"><rect id="Rectangle_381" width="37" height="37" fill="#fff" data-name="Rectangle 381" transform="translate(1008 480)"/><g id="Group_264" data-name="Group 264" opacity=".5" transform="translate(1499.19 179.251)"><path id="Path_346" d="M-478.718,331.314a2.454,2.454,0,0,1-1.208-.617,2.392,2.392,0,0,1-.632-1.584c-.193-2.384-.394-4.767-.591-7.151q-.218-2.636-.432-5.272c-.054-.657-.109-1.314-.175-1.97a.312.312,0,0,0-.142-.218,2.078,2.078,0,0,1-1.242-2.363,2.1,2.1,0,0,1,2.123-1.625c1.03,0,2.059,0,3.089,0h.27c0-.218,0-.416,0-.613a2.08,2.08,0,0,1,2.154-2.147q2.685-.009,5.371,0a2.08,2.08,0,0,1,2.157,2.144c0,.2,0,.395,0,.616h.57c.937,0,1.875,0,2.812,0a2.063,2.063,0,0,1,2.065,1.515,2.039,2.039,0,0,1-1.124,2.428.336.336,0,0,0-.238.332c-.126,1.589-.261,3.178-.394,4.767q-.222,2.658-.444,5.316c-.115,1.39-.24,2.78-.338,4.172a2.226,2.226,0,0,1-.946,1.893,5.578,5.578,0,0,1-.9.378Zm13.447-16.639h-15.089c.026.326.049.632.074.937q.192,2.337.386,4.674.2,2.371.4,4.743c.114,1.375.222,2.75.341,4.124.05.571.294.78.867.78h11.016a.707.707,0,0,0,.8-.7c.013-.1.018-.2.027-.3q.078-.951.156-1.9.2-2.383.4-4.766.175-2.1.35-4.193C-465.455,316.944-465.364,315.814-465.271,314.675Zm-7.545-2.782h-8.115c-.55,0-.876.258-.875.691s.322.689.876.689H-467.1c.845,0,1.691,0,2.536,0a.7.7,0,0,0,.689-.443.7.7,0,0,0-.736-.936Zm3.458-1.389c0-.227,0-.433,0-.639a.694.694,0,0,0-.739-.733c-.345,0-.691,0-1.036,0q-2.187,0-4.375,0a.682.682,0,0,0-.749.57,6.661,6.661,0,0,0-.006.8Z" data-name="Path 346" transform="translate(0)"/><path id="Path_347" d="M-385.085,463.081c.027.591-.43.975-.929.779a.666.666,0,0,1-.445-.615q-.118-1.824-.23-3.648-.178-2.856-.354-5.713c-.036-.589-.077-1.178-.1-1.767a.651.651,0,0,1,.386-.652.6.6,0,0,1,.709.078.881.881,0,0,1,.272.5c.111,1.49.2,2.982.289,4.473q.175,2.8.351,5.6C-385.121,462.439-385.1,462.76-385.085,463.081Z" data-name="Path 347" transform="translate(-90.506 -135.357)"/><path id="Path_348" d="M-253.118,452.287c-.136,2.173-.267,4.269-.4,6.364q-.146,2.34-.288,4.681a.7.7,0,0,1-.442.666.649.649,0,0,1-.726-.139.714.714,0,0,1-.217-.605q.1-1.595.2-3.19.129-2.065.26-4.13c.078-1.247.153-2.493.235-3.74a.685.685,0,0,1,.739-.659A.685.685,0,0,1-253.118,452.287Z" data-name="Path 348" transform="translate(-214.857 -135.498)"/><path id="Path_349" d="M-313.836,457.82q0,2.736,0,5.472a.7.7,0,0,1-.93.722.7.7,0,0,1-.452-.726q0-1.759,0-3.518,0-3.679,0-7.357a2.262,2.262,0,0,1,.006-.253.69.69,0,0,1,.71-.616.685.685,0,0,1,.664.69c.009.628,0,1.257,0,1.885q0,1.851,0,3.7Z" data-name="Path 349" transform="translate(-158.288 -135.507)"/></g></g></g></svg>