<svg xmlns="http://www.w3.org/2000/svg" width="20.054" height="21.967" viewBox="0 0 20.054 21.967">
  <g id="Group_221" data-name="Group 221" transform="translate(0.113 -0.033)">
    <path id="Path_88" data-name="Path 88" d="M117.587,308.384a3.111,3.111,0,0,1-1.325-.569,2.686,2.686,0,0,1-.963-1.615h5.15a2.635,2.635,0,0,1-.969,1.615,3.211,3.211,0,0,1-1.3.569Z" transform="translate(-107.955 -286.384)" fill="#a4b9c8"/>
    <path id="Path_89" data-name="Path 89" d="M9.91,18.873c-2.346,0-4.691-.006-7.037,0A2.813,2.813,0,0,1,.424,17.658a2.639,2.639,0,0,1-.233-2.824c.75-1.5,1.577-2.959,2.378-4.439Q4.935,6.024,7.306,1.659a2.915,2.915,0,0,1,5.234.019q2.452,4.458,4.891,8.923c.691,1.266,1.389,2.526,2.081,3.793a2.986,2.986,0,0,1,.084,2.934,2.634,2.634,0,0,1-2.4,1.531c-1.512.052-3.03.013-4.549.019C11.745,18.873,10.828,18.873,9.91,18.873Z" transform="translate(0 0)" fill="#a4b9c8"/>
  </g>
</svg>
