<svg xmlns="http://www.w3.org/2000/svg" width="16.628" height="16.63" viewBox="0 0 16.628 16.63"><defs><style>.a{fill:#535353;}</style></defs><path class="a" d="M29.558,1.15A3.938,3.938,0,0,0,24,1.15L21.215,3.931a.6.6,0,0,0,.856.856l2.781-2.781a2.723,2.723,0,0,1,3.85,3.85L25.066,9.493a2.727,2.727,0,0,1-3.851,0,.6.6,0,0,0-.856.856,3.937,3.937,0,0,0,5.562,0l3.637-3.637a3.942,3.942,0,0,0,0-5.562Z" transform="translate(-14.078 -0.001)"/><path class="a" d="M8.21,24.6,5.857,26.956a2.723,2.723,0,0,1-3.85-3.85l3.423-3.423a2.733,2.733,0,0,1,3.85,0,.6.6,0,0,0,.856-.856,3.938,3.938,0,0,0-5.562,0L1.151,22.25a3.932,3.932,0,0,0,5.562,5.561l2.353-2.353A.6.6,0,0,0,8.21,24.6Z" transform="translate(-0.003 -12.33)"/></svg>