<svg xmlns="http://www.w3.org/2000/svg" width="18.86" height="18.86" viewBox="0 0 18.86 18.86"><defs><style>.a{opacity:0.5;}.b{fill:#535353;}</style></defs><g class="a" transform="translate(-6.031 0.964)"><g transform="translate(0 0.006)"><path class="b" d="M161.536,151.354h-.9a.745.745,0,0,1-.622-.483,7.158,7.158,0,0,0-.3-.718.737.737,0,0,1,.1-.777l.643-.643a1.156,1.156,0,0,0,0-1.633l-1.043-1.043a1.155,1.155,0,0,0-1.633,0l-.643.643a.659.659,0,0,1-.459.165.733.733,0,0,1-.318-.068,7.194,7.194,0,0,0-.719-.3.745.745,0,0,1-.483-.622v-.9A1.156,1.156,0,0,0,154,143.816h-1.475a1.156,1.156,0,0,0-1.155,1.155v.9a.745.745,0,0,1-.483.622,7.186,7.186,0,0,0-.718.3.742.742,0,0,1-.317.068.661.661,0,0,1-.461-.165l-.642-.641a1.155,1.155,0,0,0-1.633,0l-1.044,1.043a1.154,1.154,0,0,0,0,1.633l.643.643a.737.737,0,0,1,.1.778,7.133,7.133,0,0,0-.3.717.745.745,0,0,1-.622.483h-.9a1.156,1.156,0,0,0-1.155,1.155v1.475a1.156,1.156,0,0,0,1.155,1.155h.9a.745.745,0,0,1,.622.483,7.144,7.144,0,0,0,.3.717.737.737,0,0,1-.1.778l-.643.643a1.156,1.156,0,0,0,0,1.633l1.044,1.045a1.155,1.155,0,0,0,1.633,0l.643-.643a.66.66,0,0,1,.461-.165.732.732,0,0,1,.317.068,7.16,7.16,0,0,0,.718.3.745.745,0,0,1,.483.622v.9a1.156,1.156,0,0,0,1.155,1.155H154a1.156,1.156,0,0,0,1.155-1.155v-.9a.745.745,0,0,1,.483-.622,7.182,7.182,0,0,0,.718-.3.741.741,0,0,1,.317-.068.66.66,0,0,1,.461.165l.643.643a1.154,1.154,0,0,0,1.633,0l1.044-1.044a1.157,1.157,0,0,0,0-1.633l-.642-.642a.738.738,0,0,1-.1-.778,7.16,7.16,0,0,0,.3-.718.745.745,0,0,1,.622-.483h.9a1.156,1.156,0,0,0,1.155-1.155v-1.475A1.157,1.157,0,0,0,161.536,151.354Zm-4.891,1.892a3.384,3.384,0,1,1-3.384-3.384A3.388,3.388,0,0,1,156.645,153.246Z" transform="translate(-137.8 -144.786)"/></g></g></svg>