<svg xmlns="http://www.w3.org/2000/svg" width="44" height="40" viewBox="0 0 44 40"><defs><style>.a{fill:#fff;}.b{fill:#535353;}</style></defs><g transform="translate(-1817 -158)"><g transform="translate(1820 162)"><rect class="a" width="36" height="36" transform="translate(-3 -4)"/></g><g transform="translate(1825 160.607)"><path class="b" d="M7.175,145.664h8.857V147.4H7.175Zm.018-3.566h8.848v1.746H7.193Zm-3.567-5.342v17.788H0v1.781H7.169V151h8.887v5.322H19.61V136.756Z" transform="translate(0 -125.932)"/><path class="b" d="M147.941,25.073h1.742v1.744h-1.742Zm0-3.571h1.737V23.25h-1.737Zm0-3.559h1.747v1.744h-1.747Zm0-3.566h1.74v1.743h-1.74Zm0-3.55h1.738v1.743h-1.738Zm-8.89-5.349h8.858V7.219h-8.858Zm.009-3.56h8.856V3.656h-8.856ZM135.485,0V9.036h10.664V30.393H155.1V28.616h-3.614V0Z" transform="translate(-124.762)"/><rect class="b" width="1.777" height="3.542" transform="translate(8.946 26.851)"/><rect class="b" width="1.777" height="3.542" transform="translate(12.501 26.851)"/></g><g transform="translate(-2 -2)"><circle class="a" cx="9.5" cy="9.5" r="9.5" transform="translate(1844 181)"/><g transform="translate(1847.797 183.797)"><path class="b" d="M335.4,328.145h-5.04v-5.04a1.105,1.105,0,1,0-2.211,0v5.04h-5.04a1.105,1.105,0,1,0,0,2.211h5.04v5.04a1.105,1.105,0,1,0,2.211,0v-5.04h5.04a1.105,1.105,0,1,0,0-2.211Z" transform="translate(-322 -322)"/></g></g></g></svg>