<svg xmlns="http://www.w3.org/2000/svg" width="37.073" height="34.79" viewBox="0 0 37.073 34.79">
  <g id="Group_170" data-name="Group 170" transform="translate(888.767 -328.016)">
    <path id="Path_283" data-name="Path 283" d="M-784.624,396.308h.61q7.78,0,15.56,0c.84,0,.776-.075.777.785q0,8.936,0,17.872c0,.8,0,1.606,0,2.409,0,.534-.006.539-.537.54q-4.311,0-8.623,0h-7.752l-.08-.077c-.011-.012-.026-.023-.03-.036a.867.867,0,0,1-.036-.188q0-10.429,0-20.859a2.183,2.183,0,0,1,.024-.287A.83.83,0,0,1-784.624,396.308Zm15.276,1.605h-13.761c-.121.622-.086,18.068.042,18.434q6.831,0,13.719,0Z" transform="translate(-93.987 -61.699)" fill="#fff"/>
    <path id="Path_284" data-name="Path 284" d="M-838.993,341.57c-.2-.624-.349-1.2-.565-1.745a15.928,15.928,0,0,0-4.214-6.133,15.412,15.412,0,0,0-6.178-3.414,16.782,16.782,0,0,0-3.4-.579,15.124,15.124,0,0,0-7.305,1.31,15.578,15.578,0,0,0-7.987,7.919,21.134,21.134,0,0,0-.794,2.166c-.16.475-.138.483-.664.485-.347,0-.694,0-1.052,0a17.066,17.066,0,0,1,12.6-13.012,16.943,16.943,0,0,1,13.163,1.928,17.328,17.328,0,0,1,7.967,10.622,12.175,12.175,0,0,1,1.644-.3l-1.589,4.878-3.552-3.585Z" transform="translate(-15.913)" fill="#fff"/>
    <path id="Path_285" data-name="Path 285" d="M-853.32,512.232a17.247,17.247,0,0,1-12.594,12.951,17.2,17.2,0,0,1-8.94-.1,17.115,17.115,0,0,1-7.708-4.54,17.673,17.673,0,0,1-4.456-7.751c-.609.051-1.119.32-1.748.353.477-1.667,1.025-3.229,1.559-4.8a35.584,35.584,0,0,1,3.48,3.487l-1.694.506a11.994,11.994,0,0,0,.883,2.532,15.3,15.3,0,0,0,3.158,4.57,15.73,15.73,0,0,0,3.6,2.71,15.469,15.469,0,0,0,5.073,1.737,15.771,15.771,0,0,0,3.206.177,15.591,15.591,0,0,0,5.416-1.213,15.536,15.536,0,0,0,6.182-4.7,15.691,15.691,0,0,0,2.853-5.522c.128-.455.138-.463.589-.457A3.653,3.653,0,0,1-853.32,512.232Z" transform="translate(0 -162.921)" fill="#fff"/>
    <path id="Path_286" data-name="Path 286" d="M-752.761,436.564h10.691V438c-.35.117-9.924.162-10.672.054A2.945,2.945,0,0,1-752.761,436.564Z" transform="translate(-122.799 -98.07)" fill="#fff"/>
    <path id="Path_287" data-name="Path 287" d="M-741.591,468.111v1.473c-.366.113-10.116.143-10.739.034v-1.46c.881-.1,1.774-.031,2.664-.042s1.8,0,2.7,0l2.649,0Z" transform="translate(-123.266 -126.566)" fill="#fff"/>
    <path id="Path_288" data-name="Path 288" d="M-752.506,501.678v-1.555c3.584-.023,7.137,0,10.737-.01v1.533c-.7.065-1.419.026-2.132.031s-1.413,0-2.119,0h-6.486Z" transform="translate(-123.107 -155.482)" fill="#fff"/>
    <path id="Path_289" data-name="Path 289" d="M-746.189,532.048v1.474c-2.039.031-4.051.008-6.112.014v-1.463A47,47,0,0,1-746.189,532.048Z" transform="translate(-123.292 -184.257)" fill="#fff"/>
  </g>
</svg>
