<svg xmlns="http://www.w3.org/2000/svg" width="10.476" height="10.476" viewBox="0 0 10.476 10.476"><defs><style>.a{fill:#333;}</style></defs><g transform="translate(0 -0.008)"><path class="a" d="M281.806,208.663h-4.147a.327.327,0,0,1,0-.655h4.147a.327.327,0,0,1,0,.655Zm0,0" transform="translate(-271.658 -203.744)"/><path class="a" d="M400.331,131.9a.328.328,0,0,1-.231-.559l1.406-1.405-1.406-1.406a.327.327,0,1,1,.463-.463L402.2,129.7a.327.327,0,0,1,0,.463l-1.637,1.637A.325.325,0,0,1,400.331,131.9Zm0,0" transform="translate(-391.82 -125.344)"/><path class="a" d="M3.492,10.484a.9.9,0,0,1-.271-.041L.594,9.568A.881.881,0,0,1,0,8.738V.881A.874.874,0,0,1,.873.008a.9.9,0,0,1,.271.041L3.77.924a.881.881,0,0,1,.594.83V9.611a.874.874,0,0,1-.873.873ZM.873.663A.219.219,0,0,0,.654.881V8.738a.227.227,0,0,0,.151.21l2.615.871a.237.237,0,0,0,.071.01.219.219,0,0,0,.218-.218V1.754a.227.227,0,0,0-.151-.21L.944.672A.237.237,0,0,0,.873.663Zm0,0" transform="translate(0 0)"/><path class="a" d="M32.779,3.5a.327.327,0,0,1-.327-.327V1.208a.546.546,0,0,0-.546-.546H27a.327.327,0,0,1,0-.655h4.911a1.2,1.2,0,0,1,1.2,1.2V3.173A.327.327,0,0,1,32.779,3.5Zm0,0" transform="translate(-26.123)"/><path class="a" d="M183.405,280.832h-1.746a.327.327,0,0,1,0-.655h1.746a.546.546,0,0,0,.546-.546v-1.964a.327.327,0,1,1,.655,0v1.964A1.2,1.2,0,0,1,183.405,280.832Zm0,0" transform="translate(-177.622 -271.658)"/></g></svg>