<svg xmlns="http://www.w3.org/2000/svg" width="21" height="21" viewBox="0 0 21 21">
  <g id="Group_2280" data-name="Group 2280" transform="translate(489 -96)">
    <path id="Path_550" data-name="Path 550" d="M-489,105.721v-.943c.04-.227.074-.455.12-.681a5.534,5.534,0,0,1,6.3-4.33c.32.053.634.14.965.215V96h9.6a1.258,1.258,0,0,0,.1.126q1.9,1.9,3.8,3.8a1.2,1.2,0,0,0,.126.1v14.438h-13.623v-3.98l-1.225.279V117h-1.23v-6.264l-.123-.019a5.483,5.483,0,0,1-4.612-4.079C-488.9,106.34-488.939,106.027-489,105.721Zm8.614-8.485c0,.084,0,.15,0,.217,0,.991,0,1.982,0,2.973a.345.345,0,0,0,.163.317,5.365,5.365,0,0,1,2.285,4.167,5.388,5.388,0,0,1-2.283,4.8.349.349,0,0,0-.165.316c.007.991,0,1.982,0,2.973v.212h11.145V100.92h-3.689V97.236Zm-3.087,12.3a4.317,4.317,0,0,0,4.316-4.292,4.314,4.314,0,0,0-4.287-4.321,4.313,4.313,0,0,0-4.326,4.3A4.316,4.316,0,0,0-483.473,109.535Zm13.3-9.852-1.5-1.509v1.509Z" transform="translate(0)" fill="#fff"/>
    <path id="Path_551" data-name="Path 551" d="M-267.329,321.251v1.207h-6.127v-1.207Z" transform="translate(-203.756 -212.933)" fill="#fff"/>
    <path id="Path_552" data-name="Path 552" d="M-256.691,276.244v1.207H-262.2v-1.207Z" transform="translate(-214.394 -170.387)" fill="#fff"/>
    <path id="Path_553" data-name="Path 553" d="M-246.066,231.245v1.207h-4.9v-1.207Z" transform="translate(-225.019 -127.849)" fill="#fff"/>
    <path id="Path_554" data-name="Path 554" d="M-397.5,208.774v4.9h-1.207v-4.9Z" transform="translate(-85.354 -106.607)" fill="#fff"/>
    <path id="Path_555" data-name="Path 555" d="M-353.822,234.959V231.3h1.207v3.663Z" transform="translate(-127.785 -127.897)" fill="#fff"/>
    <path id="Path_556" data-name="Path 556" d="M-443.756,253.672h1.207v2.436h-1.207Z" transform="translate(-42.77 -149.049)" fill="#fff"/>
  </g>
</svg>
