<svg xmlns="http://www.w3.org/2000/svg" width="48" height="45.182" viewBox="0 0 48 45.182">
  <g id="Group_469" data-name="Group 469" transform="translate(0 -15.028)">
    <g id="Group_466" data-name="Group 466" transform="translate(0 15.028)">
      <g id="Group_465" data-name="Group 465" transform="translate(0 0)">
        <path id="Path_370" data-name="Path 370" d="M24,19.411,13.684,15.135a1.406,1.406,0,0,0-1.837.761L7.652,26.021.324,34.857a1.407,1.407,0,0,0-.27,1.282L4.032,50.151A1.406,1.406,0,0,0,6.069,51L18.79,43.9a1.406,1.406,0,0,0,.715-1.1l1.066-11.431,4.194-10.125A1.406,1.406,0,0,0,24,19.411ZM16.774,41.8,8.231,46.569l3.64-8.788a1.406,1.406,0,1,0-2.6-1.076l-3.64,8.788-2.672-9.41,6.329-7.631,4.2,1.74,4.2,1.741ZM18.43,29.193l-5.5-2.276-2.227-.922,3.2-7.723,7.723,3.2Z" transform="translate(0 -15.028)" fill="#cd3538"/>
      </g>
    </g>
    <g id="Group_468" data-name="Group 468" transform="translate(0 39.323)">
      <g id="Group_467" data-name="Group 467" transform="translate(0 0)">
        <path id="Path_371" data-name="Path 371" d="M46.594,274.172H31.531a5.925,5.925,0,1,0,0,11.85,3.112,3.112,0,0,1,0,6.225H1.406a1.406,1.406,0,0,0,0,2.813H31.531a5.925,5.925,0,0,0,0-11.85,3.113,3.113,0,1,1,0-6.225H46.594a1.406,1.406,0,0,0,0-2.812Z" transform="translate(0 -274.172)" fill="#cd3538"/>
      </g>
    </g>
  </g>
</svg>
