<svg xmlns="http://www.w3.org/2000/svg" width="32.573" height="42.124" viewBox="0 0 32.573 42.124">
  <path id="Path_397" data-name="Path 397" d="M64.325,17.154a3.5,3.5,0,0,0-1.641.406,3.516,3.516,0,0,0-4.663-1.112,3.518,3.518,0,0,0-3.886-1.276v-1.1H64.3a3.228,3.228,0,0,0,3.225-3.225V3.225A3.228,3.228,0,0,0,64.3,0H38.5a3.228,3.228,0,0,0-3.225,3.225v7.624A3.228,3.228,0,0,0,38.5,14.073h8.6v7.645a3.541,3.541,0,0,0-.64-.508,3.493,3.493,0,0,0-2.519-.467,3.006,3.006,0,0,0-2.872,3.8l1.622,6.941c.925,5.791,5.442,10.124,5.635,10.306a1.234,1.234,0,0,0,.848.338H63.053a1.234,1.234,0,0,0,1.031-.556,22.8,22.8,0,0,0,3.759-12.556V20.673h0A3.523,3.523,0,0,0,64.325,17.154Zm-14.634,22.5c-.995-1.058-3.926-4.474-4.571-8.6q-.007-.046-.018-.09l-1.632-6.985a.661.661,0,0,1,.077-.566.722.722,0,0,1,.521-.223c.12-.011.17-.026.281-.032a1.349,1.349,0,0,1,.805.15,1.043,1.043,0,0,1,.469.653l1.408,6.025a1.234,1.234,0,0,0,1.048.944l.1.012a1.234,1.234,0,0,0,1.387-1.225V10.1a1.051,1.051,0,1,1,2.1,0V21.675a1.234,1.234,0,0,0,2.468,0V18.53a1.051,1.051,0,0,1,2.1,0v3.286a1.234,1.234,0,1,0,2.468,0V19.509a1.051,1.051,0,1,1,2.1,0v3.169a1.234,1.234,0,0,0,2.468,0v-2a1.051,1.051,0,0,1,2.1,0v8.339a20.335,20.335,0,0,1-3,10.645ZM37.739,10.848V3.225a.757.757,0,0,1,.756-.756H64.3a.757.757,0,0,1,.756.756v7.624a.757.757,0,0,1-.756.756H54.136V10.1a3.519,3.519,0,0,0-7.038,0v1.5H38.5A.757.757,0,0,1,37.739,10.848Z" transform="translate(-35.271)" fill="#cd3538"/>
</svg>
