<svg xmlns="http://www.w3.org/2000/svg" width="20.667" height="21.407" viewBox="0 0 20.667 21.407"><defs><style>.a{fill:#535353;}</style></defs><g transform="translate(-1024.058 14)"><path class="a" d="M1028.648-14h.377a.923.923,0,0,1,.6,1.049c-.017.171,0,.344,0,.527h9.539c0-.21-.005-.411,0-.611a1.969,1.969,0,0,1,.046-.432.889.889,0,0,1,.545-.533h.377a.9.9,0,0,1,.622,1.012c-.013.185,0,.371,0,.575.373,0,.721-.008,1.068,0a3.539,3.539,0,0,1,.664.065,2.838,2.838,0,0,1,2.237,2.891q0,5.341,0,10.681c0,1.17.03,2.342-.02,3.511a2.792,2.792,0,0,1-2.821,2.665q-7.487.007-14.974,0a2.978,2.978,0,0,1-.9-.15,2.812,2.812,0,0,1-1.938-2.781q0-4.5,0-9.009c0-1.658,0-3.316,0-4.975a2.79,2.79,0,0,1,2.236-2.821,9.342,9.342,0,0,1,1.458-.076c.087,0,.175,0,.273,0,0-.213.011-.395,0-.575A.9.9,0,0,1,1028.648-14Zm-.619,3.175h-1.008a1.256,1.256,0,0,0-1.372,1.361q0,6.961,0,13.921a1.264,1.264,0,0,0,1.376,1.361h14.786a1.243,1.243,0,0,0,1.265-.923,2.1,2.1,0,0,0,.051-.517q0-4.975,0-9.95c0-1.3,0-2.606,0-3.909a1.205,1.205,0,0,0-1-1.3,9.827,9.827,0,0,0-1.384-.013c0,.236,0,.472,0,.708a.806.806,0,0,1-.794.849.8.8,0,0,1-.794-.844c0-.241,0-.483,0-.726h-9.538c0,.251,0,.486,0,.722a.8.8,0,0,1-.79.849.81.81,0,0,1-.8-.846C1028.026-10.322,1028.029-10.558,1028.029-10.825Z"/><path class="a" d="M1110.395,186.736a.991.991,0,1,1,1-1A1,1,0,0,1,1110.395,186.736Z" transform="translate(-80.58 -187.654)"/><path class="a" d="M1110.377,257.625a.993.993,0,1,1,1-.98A1.006,1.006,0,0,1,1110.377,257.625Z" transform="translate(-80.561 -254.578)"/><path class="a" d="M1187.716,256.624a.992.992,0,1,1,.989,1.005A.992.992,0,0,1,1187.716,256.624Z" transform="translate(-154.517 -254.582)"/><path class="a" d="M1266.948,113.836a.988.988,0,1,1-1,.967A.977.977,0,0,1,1266.948,113.836Z" transform="translate(-228.383 -120.696)"/><path class="a" d="M1189.693,185.713a.992.992,0,1,1-1.983-.005.992.992,0,0,1,1.983.005Z" transform="translate(-154.512 -187.621)"/><path class="a" d="M1267.928,185.73a.989.989,0,1,1-.984-.984A.988.988,0,0,1,1267.928,185.73Z" transform="translate(-228.383 -187.646)"/><path class="a" d="M1110.4,113.84a.987.987,0,1,1-.993.977A.988.988,0,0,1,1110.4,113.84Z" transform="translate(-80.583 -120.7)"/><path class="a" d="M1267.927,256.677a.989.989,0,1,1-.98-1.011A.989.989,0,0,1,1267.927,256.677Z" transform="translate(-228.381 -254.604)"/><path class="a" d="M1188.706,113.807a.988.988,0,1,1-1,.989A.988.988,0,0,1,1188.706,113.807Z" transform="translate(-154.509 -120.668)"/></g></svg>