<svg xmlns="http://www.w3.org/2000/svg" width="17.054" height="19.493" viewBox="0 0 17.054 19.493">
  <g id="Group_96" data-name="Group 96" transform="translate(-2680.761 336.128)">
    <path id="Path_159" data-name="Path 159" d="M2683.2-319.072c-.411,0-.794,0-1.177,0a1.214,1.214,0,0,1-1.259-1.263q0-7.265,0-14.529a1.211,1.211,0,0,1,1.259-1.263q6.056,0,12.113,0a1.212,1.212,0,0,1,1.244,1.256c0,.383,0,.767,0,1.18.407,0,.8,0,1.2,0a1.212,1.212,0,0,1,1.217,1,1.479,1.479,0,0,1,.02.281q0,7.243,0,14.486a1.217,1.217,0,0,1-1.281,1.285h-12.048a1.219,1.219,0,0,1-1.288-1.3C2683.2-318.3,2683.2-318.673,2683.2-319.072Zm1.228,1.2h12.154v-14.593h-12.154Zm-1.228-2.43v-.282q0-5.883,0-11.766a1.229,1.229,0,0,1,1.351-1.345h9.6V-334.9h-12.157v14.6Z" fill="#fff"/>
    <path id="Path_160" data-name="Path 160" d="M2819.029-187.3c-1,0-2,0-3,0a.6.6,0,0,1-.627-.54.6.6,0,0,1,.45-.656.592.592,0,0,1,.15-.02q3.044,0,6.089,0a.59.59,0,0,1,.6.539.6.6,0,0,1-.47.662,1.121,1.121,0,0,1-.238.015Z" transform="translate(-128.524 -140.909)" fill="#fff"/>
    <path id="Path_161" data-name="Path 161" d="M2819-106.795h-2.958a.618.618,0,0,1-.694-.611.619.619,0,0,1,.7-.607h5.915a.61.61,0,0,1,.691.61.613.613,0,0,1-.695.607Z" transform="translate(-128.474 -217.759)" fill="#fff"/>
    <path id="Path_162" data-name="Path 162" d="M2819.029-27.511c1.008,0,2.015,0,3.023,0a.6.6,0,0,1,.624.518.6.6,0,0,1-.446.678.587.587,0,0,1-.15.02q-3.045,0-6.089,0a.594.594,0,0,1-.606-.539.6.6,0,0,1,.45-.655,1.067,1.067,0,0,1,.258-.021Q2817.561-27.512,2819.029-27.511Z" transform="translate(-128.507 -294.606)" fill="#fff"/>
  </g>
</svg>
