<svg xmlns="http://www.w3.org/2000/svg" width="10.089" height="10.089" viewBox="0 0 10.089 10.089"><defs><style>.a{fill:#333;}</style></defs><g transform="translate(0 -0.001)"><g transform="translate(0 0.001)"><path class="a" d="M9.573,3.986l-.708-.12a4,4,0,0,0-.285-.687L9,2.6a.621.621,0,0,0-.067-.8L8.3,1.164a.619.619,0,0,0-.44-.183A.612.612,0,0,0,7.5,1.1l-.586.417A3.957,3.957,0,0,0,6.2,1.221l-.118-.7A.623.623,0,0,0,5.469,0H4.582a.623.623,0,0,0-.615.521l-.122.717a3.9,3.9,0,0,0-.685.289L2.58,1.11a.623.623,0,0,0-.8.067l-.63.628a.624.624,0,0,0-.067.8L1.5,3.2a3.906,3.906,0,0,0-.28.689l-.7.118A.623.623,0,0,0,0,4.623V5.51a.623.623,0,0,0,.521.615l.717.122a3.9,3.9,0,0,0,.289.685l-.415.577a.621.621,0,0,0,.067.8l.628.628a.619.619,0,0,0,.44.183.612.612,0,0,0,.36-.116L3.2,8.587a3.987,3.987,0,0,0,.666.274l.118.708a.623.623,0,0,0,.615.521h.889A.623.623,0,0,0,6.1,9.569l.12-.708a4,4,0,0,0,.687-.285l.584.417a.619.619,0,0,0,.363.116h0a.619.619,0,0,0,.44-.183L8.926,8.3a.624.624,0,0,0,.067-.8L8.576,6.91a3.97,3.97,0,0,0,.285-.687L9.568,6.1a.623.623,0,0,0,.521-.615V4.6A.615.615,0,0,0,9.573,3.986Zm-.048,1.5a.055.055,0,0,1-.046.055l-.885.148a.283.283,0,0,0-.228.209A3.374,3.374,0,0,1,8,6.783a.285.285,0,0,0,.013.31l.521.733a.057.057,0,0,1-.006.072L7.9,8.526a.054.054,0,0,1-.04.017.052.052,0,0,1-.032-.011l-.731-.521A.285.285,0,0,0,6.784,8a3.374,3.374,0,0,1-.883.367.28.28,0,0,0-.209.228l-.15.885a.055.055,0,0,1-.055.046H4.6a.055.055,0,0,1-.055-.046L4.4,8.594a.283.283,0,0,0-.209-.228,3.5,3.5,0,0,1-.864-.354.292.292,0,0,0-.143-.038.278.278,0,0,0-.164.053l-.738.525a.063.063,0,0,1-.032.011.056.056,0,0,1-.04-.017l-.628-.628a.057.057,0,0,1-.006-.072l.518-.727a.289.289,0,0,0,.013-.312,3.342,3.342,0,0,1-.371-.881.289.289,0,0,0-.228-.209L.615,5.565A.055.055,0,0,1,.569,5.51V4.623a.055.055,0,0,1,.046-.055l.879-.148a.285.285,0,0,0,.23-.211,3.371,3.371,0,0,1,.36-.885.281.281,0,0,0-.015-.308l-.525-.738a.057.057,0,0,1,.006-.072l.628-.628a.054.054,0,0,1,.04-.017.052.052,0,0,1,.032.011l.727.518A.289.289,0,0,0,3.29,2.1a3.342,3.342,0,0,1,.881-.371.289.289,0,0,0,.209-.228L4.531.614A.055.055,0,0,1,4.586.568h.887a.055.055,0,0,1,.055.046l.148.879a.285.285,0,0,0,.211.23,3.421,3.421,0,0,1,.9.371.285.285,0,0,0,.31-.013l.727-.523a.063.063,0,0,1,.032-.011.056.056,0,0,1,.04.017l.628.628a.057.057,0,0,1,.006.072L8.013,3A.285.285,0,0,0,8,3.306a3.374,3.374,0,0,1,.367.883.28.28,0,0,0,.228.209l.885.15a.055.055,0,0,1,.046.055v.887Z" transform="translate(0 -0.001)"/><path class="a" d="M138.277,136a2.177,2.177,0,1,0,2.177,2.177A2.179,2.179,0,0,0,138.277,136Zm0,3.785a1.608,1.608,0,1,1,1.608-1.608A1.609,1.609,0,0,1,138.277,139.786Z" transform="translate(-133.232 -133.135)"/></g></g></svg>