<svg xmlns="http://www.w3.org/2000/svg" width="32.501" height="27.5" viewBox="0 0 32.501 27.5">
  <path id="Path_351" data-name="Path 351" d="M640.628,606.938l-2.748-1.082c-1.16-.457-2.319-.918-3.482-1.369-.437-.17-.781-.413-.792-.93-.012-.538.334-.8.786-.974q2.891-1.134,5.779-2.273c.128-.05.253-.1.448-.185l-4.66-1.833c-.514-.2-1.027-.41-1.543-.607-.449-.172-.807-.418-.808-.958s.359-.787.8-.962l13.175-5.177c.562-.221,1.135-.42,1.684-.67a1.365,1.365,0,0,1,1.146-.006q5.864,2.32,11.736,4.62c1.076.423,2.157.834,3.237,1.248a.974.974,0,0,1,.711.98c-.007.441-.286.736-.78.927-2.039.787-4.071,1.59-6.105,2.389-.018.007-.03.031-.073.076.3.12.579.237.862.347q2.676,1.044,5.353,2.084a.976.976,0,0,1-.009,1.9q-3.018,1.176-6.032,2.363c-.045.018-.089.042-.187.089.139.067.232.12.33.159q2.981,1.162,5.964,2.32a.987.987,0,0,1,.677.927.915.915,0,0,1-.672.923q-7.593,2.978-15.186,5.956a1.231,1.231,0,0,1-.965-.072q-5.957-2.347-11.918-4.686-1.508-.593-3.015-1.187a1,1,0,0,1-.721-.734.945.945,0,0,1,.712-1.124c1.314-.523,2.632-1.036,3.948-1.553Zm21.926-10.208c-.109-.052-.166-.083-.225-.106q-6.1-2.4-12.208-4.789a.933.933,0,0,0-.615.029q-4.494,1.746-8.978,3.517c-1.108.435-2.214.874-3.371,1.332.133.064.21.107.292.139q6.078,2.384,12.16,4.758a.82.82,0,0,0,.543-.016q5.563-2.166,11.117-4.354C661.684,597.076,662.1,596.911,662.554,596.73Zm-.035,13.635a1.032,1.032,0,0,0-.144-.1c-1.889-.745-3.778-1.492-5.672-2.223a.72.72,0,0,0-.47.036q-2.924,1.132-5.838,2.289a1.366,1.366,0,0,1-1.077.007q-2.9-1.151-5.8-2.272a.984.984,0,0,0-.646,0c-1.789.683-3.57,1.389-5.352,2.09-.1.04-.2.094-.348.164.1.048.157.076.213.1q6.118,2.407,12.24,4.806a.763.763,0,0,0,.5-.019c1.751-.676,3.5-1.366,5.243-2.053Zm-25.36-6.847c.148.074.232.125.322.161q6.041,2.368,12.087,4.724a.876.876,0,0,0,.581-.006q6.048-2.35,12.086-4.725c.088-.034.168-.088.3-.158-2-.784-3.933-1.548-5.875-2.3a.729.729,0,0,0-.465.058c-1.911.745-3.823,1.49-5.725,2.258a1.569,1.569,0,0,1-1.258-.007q-2.855-1.148-5.728-2.25a.939.939,0,0,0-.608,0c-.893.327-1.774.685-2.659,1.034Z" transform="translate(-633.602 -589.788)" fill="#535353" opacity="0.5"/>
</svg>
