<svg xmlns="http://www.w3.org/2000/svg" width="8.755" height="10.494" viewBox="0 0 8.755 10.494"><defs><style>.a{fill:#333;}</style></defs><g transform="translate(0 0)"><path class="a" d="M89.559,5.055a2.446,2.446,0,0,0,1.787-.741,2.446,2.446,0,0,0,.74-1.787A2.446,2.446,0,0,0,91.347.741a2.527,2.527,0,0,0-3.574,0,2.446,2.446,0,0,0-.741,1.787,2.446,2.446,0,0,0,.741,1.787A2.447,2.447,0,0,0,89.559,5.055Zm-1.352-3.88a1.912,1.912,0,0,1,2.7,0,1.827,1.827,0,0,1,.56,1.352,1.827,1.827,0,0,1-.56,1.352,1.912,1.912,0,0,1-2.7,0,1.827,1.827,0,0,1-.56-1.352,1.827,1.827,0,0,1,.56-1.352Zm0,0" transform="translate(-85.248)"/><path class="a" d="M8.734,250.317a6.242,6.242,0,0,0-.085-.663,5.226,5.226,0,0,0-.163-.667,3.294,3.294,0,0,0-.274-.622,2.344,2.344,0,0,0-.413-.539,1.822,1.822,0,0,0-.594-.373,2.052,2.052,0,0,0-.758-.137.769.769,0,0,0-.411.174l-.428.276a2.452,2.452,0,0,1-.554.244,2.15,2.15,0,0,1-1.355,0,2.446,2.446,0,0,1-.553-.244l-.428-.276a.769.769,0,0,0-.411-.174,2.049,2.049,0,0,0-.758.137,1.82,1.82,0,0,0-.594.373,2.345,2.345,0,0,0-.413.539,3.3,3.3,0,0,0-.274.622,5.236,5.236,0,0,0-.163.667,6.2,6.2,0,0,0-.085.663c-.014.2-.021.409-.021.62a1.743,1.743,0,0,0,.518,1.318,1.863,1.863,0,0,0,1.334.486H6.9a1.863,1.863,0,0,0,1.334-.486,1.742,1.742,0,0,0,.518-1.318c0-.211-.007-.42-.021-.62Zm-.92,1.493a1.254,1.254,0,0,1-.91.317H1.851a1.254,1.254,0,0,1-.91-.317,1.138,1.138,0,0,1-.327-.873c0-.2.006-.391.019-.577a5.594,5.594,0,0,1,.077-.6,4.621,4.621,0,0,1,.143-.588,2.688,2.688,0,0,1,.223-.506,1.738,1.738,0,0,1,.3-.4,1.208,1.208,0,0,1,.395-.246,1.415,1.415,0,0,1,.484-.093c.022.011.06.033.122.074l.433.279a3.048,3.048,0,0,0,.7.311,2.765,2.765,0,0,0,1.733,0,3.05,3.05,0,0,0,.7-.311l.433-.279c.062-.04.1-.062.122-.074a1.416,1.416,0,0,1,.484.093,1.21,1.21,0,0,1,.395.246,1.732,1.732,0,0,1,.3.4,2.677,2.677,0,0,1,.223.505,4.608,4.608,0,0,1,.143.588,5.64,5.64,0,0,1,.077.6h0c.013.186.02.38.02.577a1.138,1.138,0,0,1-.327.873Zm0,0" transform="translate(0 -242.247)"/></g></svg>