<svg xmlns="http://www.w3.org/2000/svg" width="47.333" height="27.344" viewBox="0 0 47.333 27.344">
  <g id="Group_126" data-name="Group 126" transform="translate(-1350.333 -165.322)">
    <g id="add" transform="translate(1355 100.04)">
      <g id="Group_125" data-name="Group 125" transform="translate(0 59.96)">
        <g id="Group_124" data-name="Group 124" transform="translate(0 0)">
          <path id="Path_214" data-name="Path 214" d="M166.844,228.582a.622.622,0,0,0-1.244,0v4.978h-4.978a.622.622,0,1,0,0,1.244H165.6v4.978a.622.622,0,0,0,1.244,0V234.8h4.978a.622.622,0,1,0,0-1.244h-4.978Z" transform="translate(-147.556 -214.893)" fill="#cd3538" stroke="#cd3538" stroke-width="1"/>
        </g>
      </g>
    </g>
    <g id="row" transform="translate(1350.333 146.322)">
      <path id="Path_216" data-name="Path 216" d="M1.972,40.91H1.578A1.8,1.8,0,0,1,0,38.95v-.49A1.8,1.8,0,0,1,1.578,36.5a1.518,1.518,0,0,1,1.3.841A2.13,2.13,0,0,1,3.55,38.95,1.8,1.8,0,0,1,1.972,40.91Z" transform="translate(0 5.434)" fill="#cd3538"/>
      <path id="Path_217" data-name="Path 217" d="M1.578,35.184A1.8,1.8,0,0,1,0,33.224v-.833a1.8,1.8,0,0,1,1.578-1.96,1.8,1.8,0,0,1,1.578,1.96v.833A1.8,1.8,0,0,1,1.578,35.184Zm0-5.831A1.8,1.8,0,0,1,0,27.393V26.56A1.8,1.8,0,0,1,1.578,24.6a1.8,1.8,0,0,1,1.578,1.96v.833A1.8,1.8,0,0,1,1.578,29.353Z" transform="translate(0 2.78)" fill="#cd3538"/>
      <path id="Path_218" data-name="Path 218" d="M1.578,23.41A1.8,1.8,0,0,1,0,21.45v-.49A1.8,1.8,0,0,1,1.578,19h.394A1.8,1.8,0,0,1,3.55,20.96a2.13,2.13,0,0,1-.677,1.609A1.518,1.518,0,0,1,1.578,23.41Z" fill="#cd3538"/>
      <path id="Path_219" data-name="Path 219" d="M42,22.92h-.789a1.8,1.8,0,0,1-1.578-1.96A1.8,1.8,0,0,1,41.211,19H42a1.8,1.8,0,0,1,1.578,1.96A1.8,1.8,0,0,1,42,22.92Zm-5.522,0h-.789a1.8,1.8,0,0,1-1.578-1.96A1.8,1.8,0,0,1,35.689,19h.789a1.8,1.8,0,0,1,1.578,1.96A1.8,1.8,0,0,1,36.478,22.92Zm-5.522,0h-.789a1.8,1.8,0,0,1-1.578-1.96A1.8,1.8,0,0,1,30.167,19h.789a1.8,1.8,0,0,1,1.578,1.96A1.8,1.8,0,0,1,30.955,22.92Zm-5.522,0h-.789a1.8,1.8,0,0,1-1.578-1.96A1.8,1.8,0,0,1,24.644,19h.789a1.8,1.8,0,0,1,1.578,1.96A1.8,1.8,0,0,1,25.433,22.92Zm-5.522,0h-.789a1.8,1.8,0,0,1-1.578-1.96A1.8,1.8,0,0,1,19.122,19h.789a1.8,1.8,0,0,1,1.578,1.96A1.8,1.8,0,0,1,19.911,22.92Zm-5.522,0H13.6a1.8,1.8,0,0,1-1.578-1.96A1.8,1.8,0,0,1,13.6,19h.789a1.8,1.8,0,0,1,1.578,1.96A1.8,1.8,0,0,1,14.389,22.92Zm-5.522,0H8.078A1.8,1.8,0,0,1,6.5,20.96,1.8,1.8,0,0,1,8.078,19h.789a1.8,1.8,0,0,1,1.578,1.96A1.8,1.8,0,0,1,8.867,22.92Z" transform="translate(-1.372)" fill="#cd3538"/>
      <path id="Path_220" data-name="Path 220" d="M57.472,23.41a1.518,1.518,0,0,1-1.3-.841A2.13,2.13,0,0,1,55.5,20.96,1.8,1.8,0,0,1,57.078,19h.394a1.8,1.8,0,0,1,1.578,1.96v.49A1.8,1.8,0,0,1,57.472,23.41Z" transform="translate(-11.717)" fill="#cd3538"/>
      <path id="Path_221" data-name="Path 221" d="M57.578,35.183A1.8,1.8,0,0,1,56,33.223V32.39a1.615,1.615,0,1,1,3.156,0v.833A1.8,1.8,0,0,1,57.578,35.183Zm0-5.831A1.8,1.8,0,0,1,56,27.392V26.56a1.615,1.615,0,1,1,3.156,0v.833A1.8,1.8,0,0,1,57.578,29.352Z" transform="translate(-11.823 2.78)" fill="#cd3538"/>
      <path id="Path_222" data-name="Path 222" d="M57.472,40.91h-.394A1.8,1.8,0,0,1,55.5,38.95a2.13,2.13,0,0,1,.677-1.609,1.518,1.518,0,0,1,1.3-.841,1.8,1.8,0,0,1,1.578,1.96v.49A1.8,1.8,0,0,1,57.472,40.91Z" transform="translate(-11.717 5.434)" fill="#cd3538"/>
      <path id="Path_223" data-name="Path 223" d="M42,40.92h-.789a2.006,2.006,0,0,1,0-3.92H42a2.006,2.006,0,0,1,0,3.92Zm-5.522,0h-.789a2.006,2.006,0,0,1,0-3.92h.789a2.006,2.006,0,0,1,0,3.92Zm-5.522,0h-.789a2.006,2.006,0,0,1,0-3.92h.789a2.006,2.006,0,0,1,0,3.92Zm-5.522,0h-.789a2.006,2.006,0,0,1,0-3.92h.789a2.006,2.006,0,0,1,0,3.92Zm-5.522,0h-.789a2.006,2.006,0,0,1,0-3.92h.789a2.006,2.006,0,0,1,0,3.92Zm-5.522,0H13.6a2.006,2.006,0,0,1,0-3.92h.789a2.006,2.006,0,0,1,0,3.92Zm-5.522,0H8.078a2.006,2.006,0,0,1,0-3.92h.789a2.006,2.006,0,0,1,0,3.92Z" transform="translate(-1.372 5.424)" fill="#cd3538"/>
    </g>
  </g>
</svg>
