<svg xmlns="http://www.w3.org/2000/svg" width="26.601" height="30.852" viewBox="0 0 26.601 30.852"><defs><style>.a{fill:#a4b9c8;}</style></defs><g transform="translate(563.053 -320.974)"><path class="a" d="M-375.61,335.286h-11.065V321.043a.676.676,0,0,1,.1.091,12.834,12.834,0,0,0,5.949,4.708,13.887,13.887,0,0,0,5.284,1.112.95.95,0,0,1,1.008,1.187q-.6,3.433-1.211,6.865C-375.56,335.095-375.585,335.181-375.61,335.286Z" transform="translate(-162.141 -0.063)"/><path class="a" d="M-561.774,335.22l-.975-5.523c-.091-.515-.178-1.031-.274-1.544-.146-.781.246-1.249,1.064-1.268A14.4,14.4,0,0,0-553,323.529a10.7,10.7,0,0,0,2.267-2.555V335.22Z"/><path class="a" d="M-375.917,521.162a24.11,24.11,0,0,1-10.658,14.692V521.162Z" transform="translate(-162.232 -184.028)"/><path class="a" d="M-542.155,521.123h10.64V535.8A24.084,24.084,0,0,1-542.155,521.123Z" transform="translate(-19.211 -183.992)"/></g></svg>