<svg xmlns="http://www.w3.org/2000/svg" width="18.992" height="20.379" viewBox="0 0 18.992 20.379"><defs><style>.a{fill:#535353;}</style></defs><g transform="translate(-7.737)"><path class="a" d="M26.541,19.241,20.7,13.166a7.625,7.625,0,1,0-1.049.849l5.922,6.158a.672.672,0,1,0,.969-.932ZM9.081,7.656a6.311,6.311,0,1,1,6.312,6.312A6.319,6.319,0,0,1,9.081,7.656Z" transform="translate(0)"/><path class="a" d="M54.946,77.93H48.091a.672.672,0,1,0,0,1.344h6.855a.672.672,0,1,0,0-1.344Z" transform="translate(-36.126 -70.946)"/></g></svg>