<?xml version="1.0" encoding="utf-8"?>
<!-- Generator: Adobe Illustrator 22.1.0, SVG Export Plug-In . SVG Version: 6.00 Build 0)  -->
<svg version="1.1" id="Layer_1" xmlns="http://www.w3.org/2000/svg" xmlns:xlink="http://www.w3.org/1999/xlink" x="0px" y="0px"
	 viewBox="0 0 800 648" style="enable-background:new 0 0 800 648;" xml:space="preserve">
<style type="text/css">
	.st0{fill:#6E7F80;}
	.st1{fill:#C05365;}
	.st2{fill:#F05B46;}
</style>
<g>
	<path class="st0" d="M424.4,167.5H255.8l0.3,127.1h87.4v-39.4h80.9c29.2,0,43.8,21.9,43.8,65.7c0,43.8-14.6,65.7-43.8,65.7H414
		v87.6l-2.9-3.1l2.9,3.1l10.4,0c87.6,0,131.5-51.1,131.5-153.4C555.8,218.6,512,167.5,424.4,167.5z"/>
	<path class="st1" d="M414,400l44.8,71.2c-17.7,3.5-44.8,3-44.8,3V400z"/>
	<polygon class="st2" points="358.6,324.9 272.9,324.9 272.6,324.9 411.1,471.2 414,474.2 414,386.6 414,324.9 	"/>
</g>
</svg>
