<svg xmlns="http://www.w3.org/2000/svg" xmlns:xlink="http://www.w3.org/1999/xlink" id="Layer_1" x="0" y="0" version="1.1" viewBox="0 0 70 30" xml:space="preserve" style="enable-background:new 0 0 70 30"><style type="text/css">.st0{fill:none}.st1{fill:#a4b9c8}.st2{font-family:&apos;OpenSans-Bold&apos;}.st3{font-size:3px}.st4{fill:#6e7f80}.st5{fill:#f05b46}.st6{fill:#ce3438}.st7{fill:#c05365}</style><rect width="17" height="4.3" x="48.1" y="14.7" class="st0"/><text class="st1 st2 st3" transform="matrix(1 0 0 1 46.8125 19.0947)">AUTO INDEX</text><g><path d="M12,12.9H8.7l0,2.5h1.7v-0.8H12c0.6,0,0.9,0.4,0.9,1.3c0,0.9-0.3,1.3-0.9,1.3h-0.2V19l-0.1-0.1l0.1,0.1l0.2,0 c1.7,0,2.6-1,2.6-3.1C14.7,13.9,13.8,12.9,12,12.9z" class="st4"/><polygon points="10.7 16 9 16 9 16 11.8 18.9 11.8 19 11.8 17.3 11.8 16" class="st5"/><path d="M18.1,19c-0.8,0-1.6-0.3-2.2-0.9c-0.6-0.6-0.9-1.3-0.9-2.2c0-0.8,0.3-1.6,0.9-2.2c0.6-0.6,1.3-0.9,2.2-0.9 c0.8,0,1.6,0.3,2.2,0.9c0.6,0.6,0.9,1.3,0.9,2.2c0,0.8-0.3,1.6-0.9,2.2C19.7,18.7,19,19,18.1,19z M19.1,16.9 c0.3-0.3,0.4-0.6,0.4-0.9s-0.1-0.7-0.4-0.9c-0.3-0.3-0.6-0.4-0.9-0.4s-0.7,0.1-0.9,0.4c-0.3,0.3-0.4,0.6-0.4,0.9s0.1,0.7,0.4,0.9 c0.3,0.3,0.6,0.4,0.9,0.4S18.8,17.1,19.1,16.9z" class="st6"/><path d="M34.6,12.9V19h-1.7v-3.5l-1.7,1.7l-1.7-1.7V19h-1.7v-6.1h1.7l1.7,1.7l1.7-1.7H34.6z" class="st6"/><path d="M23.4,15.1l1.7-2.2h2.2l-2.5,3.1l2.5,3.1h-2.2l-1.7-2.2V19h-1.7v-6.1h1.7V15.1z" class="st6"/><path d="M11.8,17.5l0.9,1.4C12.4,19,11.8,19,11.8,19V17.5z" class="st7"/><g><polygon points="35.2 19 40.5 19 40.5 17.3 37 17.3 37 16.7 39.1 16.7 39.1 15.2 37 15.2 37 14.6 40.5 14.6 40.5 12.9 35.2 12.9" class="st6"/><polygon points="46.1 14.6 46.1 12.9 40.9 12.9 40.9 19 46.1 19 46.1 17.3 42.6 17.3 42.6 16.7 44.8 16.7 44.8 15.2 42.6 15.2 42.6 14.6" class="st6"/></g></g></svg>