<svg xmlns="http://www.w3.org/2000/svg" width="506.441" height="381.191" viewBox="0 0 506.441 381.191"><g id="Group_2578" data-name="Group 2578" transform="translate(-793 -414)"><g id="Group_2577" data-name="Group 2577" transform="translate(793 414)"><g id="Group_2311" data-name="Group 2311" transform="translate(181.118 343.187)"><g id="Group_2310" data-name="Group 2310"><g id="Group_2309" data-name="Group 2309"><path id="Path_583" fill="#415b91" d="M767.386,345.711H713.258l.918-2.178c3.55-8.421,3.916-15.63,3.376-23.864L717.443,318l45.637-.139.011,1.561c.039,5.323,1.479,17.413,3.647,24.244Zm-49.458-3.137h45.228A119.1,119.1,0,0,1,760,321.009l-39.216.121C721.152,328.433,720.7,335.076,717.929,342.574Z" data-name="Path 583" transform="translate(-713.258 -317.863)"/></g></g></g><g id="Group_2314" data-name="Group 2314" transform="translate(79.069 186.418)"><g id="Group_2313" data-name="Group 2313"><g id="Group_2312" data-name="Group 2312"><path id="Path_584" fill="#415b91" d="M732.278,374.106c-41.094,0-74.384-.224-75.845-.746-3.517-1.254-8.115-6.128-8.177-9.585-.133-7.489-.455-17.685-.827-29.5-1.127-35.6-2.667-84.362-.669-111.344a9.362,9.362,0,0,1,9.28-8.714h.157l236.921.352a9.342,9.342,0,0,1,9.145,9.207c.182,7.881.439,15.935.7,24.1,1.086,34.18,2.207,69.528-1.579,102.952-.15,1.317-.215,2.774-.283,4.281-.319,7.012-.716,15.742-9.755,17.525C886.922,373.51,799.241,374.106,732.278,374.106ZM656.059,216.743a6.845,6.845,0,0,0-6.784,6.38c-1.989,26.849-.451,75.532.672,111.078.375,11.818.7,22.025.83,29.529.039,2.183,3.686,6.252,6.5,7.256,5.045,1.03,227.783.269,233.573-.82,7.1-1.4,7.416-8.4,7.725-15.167.071-1.567.141-3.08.295-4.452,3.766-33.239,2.647-68.5,1.566-102.588-.259-8.17-.514-16.232-.7-24.12a6.826,6.826,0,0,0-6.658-6.745l-236.91-.352Z" data-name="Path 584" transform="translate(-645.793 -214.221)"/></g></g></g><g id="Group_2316" data-name="Group 2316" transform="translate(87.949 194.632)"><g id="Group_2315" data-name="Group 2315"><path id="Path_585" fill="#b6d0fb" fill-rule="evenodd" d="M883.48,219.946l-223.224-.293c-4.014-.06-7.385,2.692-7.686,6.289-2.5,29.877.908,92.214,1.413,117.3.048,2.446,4.04,6.112,6.916,7.02,3.384,1.069,215.516.262,220.7-.643,9.312-1.626,7.726-11.161,8.508-17.263,4.417-34.507,1.7-72.015.824-105.766C890.836,222.938,887.549,220.006,883.48,219.946Z" data-name="Path 585" transform="translate(-651.663 -219.651)"/></g></g><g id="Group_2319" data-name="Group 2319" transform="translate(156.117 368.089)"><g id="Group_2318" data-name="Group 2318"><g id="Group_2317" data-name="Group 2317"><path id="Path_586" fill="#415b91" d="M795.223,345.86h-92.88a5.769,5.769,0,0,1,0-11.534h92.88a5.769,5.769,0,0,1,0,11.534Zm-92.88-9.011a3.248,3.248,0,0,0,0,6.489h92.88a3.248,3.248,0,0,0,0-6.489Z" data-name="Path 586" transform="translate(-696.73 -334.326)"/></g></g></g><g id="Group_2344" data-name="Group 2344" transform="translate(93.917 331.032)"><g id="Group_2327" data-name="Group 2327"><g id="Group_2322" data-name="Group 2322" transform="translate(2.719 3.242)"><g id="Group_2321" data-name="Group 2321"><g id="Group_2320" data-name="Group 2320"><path id="Path_587" fill="#415b91" fill-rule="evenodd" d="M657.818,311.97h0" data-name="Path 587" transform="translate(-657.406 -311.97)"/></g></g></g><g id="Group_2326" data-name="Group 2326"><g id="Group_2325" data-name="Group 2325"><g id="Group_2324" data-name="Group 2324"><g id="Group_2323" data-name="Group 2323"><path id="Path_588" fill="#415b91" d="M658.739,316.31c4.172,0,4.178-6.483,0-6.483s-4.178,6.483,0,6.483Z" data-name="Path 588" transform="translate(-655.608 -309.827)"/></g></g></g></g></g><g id="Group_2335" data-name="Group 2335" transform="translate(13.069)"><g id="Group_2330" data-name="Group 2330" transform="translate(2.719 3.242)"><g id="Group_2329" data-name="Group 2329"><g id="Group_2328" data-name="Group 2328"><path id="Path_589" fill="#415b91" fill-rule="evenodd" d="M666.458,311.97h0" data-name="Path 589" transform="translate(-666.046 -311.97)"/></g></g></g><g id="Group_2334" data-name="Group 2334"><g id="Group_2333" data-name="Group 2333"><g id="Group_2332" data-name="Group 2332"><g id="Group_2331" data-name="Group 2331"><path id="Path_590" fill="#415b91" d="M667.379,316.31c4.172,0,4.178-6.483,0-6.483s-4.178,6.483,0,6.483Z" data-name="Path 590" transform="translate(-664.248 -309.827)"/></g></g></g></g></g><g id="Group_2343" data-name="Group 2343" transform="translate(26.137)"><g id="Group_2338" data-name="Group 2338" transform="translate(2.719 3.242)"><g id="Group_2337" data-name="Group 2337"><g id="Group_2336" data-name="Group 2336"><path id="Path_591" fill="#415b91" fill-rule="evenodd" d="M675.1,311.97h0" data-name="Path 591" transform="translate(-674.686 -311.97)"/></g></g></g><g id="Group_2342" data-name="Group 2342"><g id="Group_2341" data-name="Group 2341"><g id="Group_2340" data-name="Group 2340"><g id="Group_2339" data-name="Group 2339"><path id="Path_592" fill="#415b91" d="M676.019,316.31c4.172,0,4.178-6.483,0-6.483s-4.178,6.483,0,6.483Z" data-name="Path 592" transform="translate(-672.888 -309.827)"/></g></g></g></g></g></g><g id="Group_2352" data-name="Group 2352" transform="translate(206.703 189.957)"><g id="Group_2347" data-name="Group 2347" transform="translate(1.275 1.52)"><g id="Group_2346" data-name="Group 2346"><g id="Group_2345" data-name="Group 2345"><path id="Path_593" fill="#415b91" fill-rule="evenodd" d="M731.208,217.566h0" data-name="Path 593" transform="translate(-731.015 -217.566)"/></g></g></g><g id="Group_2351" data-name="Group 2351"><g id="Group_2350" data-name="Group 2350"><g id="Group_2349" data-name="Group 2349"><g id="Group_2348" data-name="Group 2348"><path id="Path_594" fill="#415b91" d="M731.64,219.6a1.521,1.521,0,0,0,0-3.04,1.521,1.521,0,0,0,0,3.04Z" data-name="Path 594" transform="translate(-730.172 -216.561)"/></g></g></g></g></g><g id="Group_2357" data-name="Group 2357" transform="translate(152.62 117.245)"><g id="Group_2354" data-name="Group 2354"><g id="Group_2353" data-name="Group 2353"><path id="Path_595" fill="#b6d0fb" d="M726.1,202.3l2.127-2.128a1.1,1.1,0,0,0,0-1.563l-1.853-1.85a1.566,1.566,0,0,1-.247-1.749l1.51-3.667a1.567,1.567,0,0,1,1.417-1.063h2.623a1.1,1.1,0,0,0,1.1-1.1v-3.018a1.1,1.1,0,0,0-1.1-1.1h-2.623a1.568,1.568,0,0,1-1.417-1.06l-1.51-3.665a1.573,1.573,0,0,1,.247-1.753l1.853-1.85a1.093,1.093,0,0,0,0-1.556l-2.127-2.136a1.1,1.1,0,0,0-1.559,0l-1.856,1.853a1.569,1.569,0,0,1-1.746.254l-3.671-1.513a1.569,1.569,0,0,1-1.059-1.417V169.6a1.108,1.108,0,0,0-1.1-1.106H712.1a1.109,1.109,0,0,0-1.106,1.106v2.624a1.569,1.569,0,0,1-1.059,1.417l-3.671,1.513a1.567,1.567,0,0,1-1.745-.254l-1.857-1.851a1.092,1.092,0,0,0-1.553,0l-2.136,2.134a1.1,1.1,0,0,0,0,1.556l1.853,1.85a1.571,1.571,0,0,1,.251,1.753L699.564,184a1.572,1.572,0,0,1-1.417,1.06h-2.626a1.1,1.1,0,0,0-1.1,1.1v3.018a1.1,1.1,0,0,0,1.1,1.1h2.626a1.571,1.571,0,0,1,1.417,1.063l1.51,3.667a1.564,1.564,0,0,1-.251,1.749l-1.853,1.85a1.106,1.106,0,0,0,0,1.563l2.136,2.128a1.089,1.089,0,0,0,1.553,0l1.857-1.85a1.557,1.557,0,0,1,1.749-.25l3.668,1.51a1.564,1.564,0,0,1,1.059,1.416v2.629a1.106,1.106,0,0,0,1.106,1.1h3.01a1.105,1.105,0,0,0,1.1-1.1v-2.629a1.564,1.564,0,0,1,1.059-1.416l3.671-1.51a1.554,1.554,0,0,1,1.746.25l1.856,1.85A1.1,1.1,0,0,0,726.1,202.3Zm-12.5-5.827a8.8,8.8,0,1,1,8.8-8.8A8.805,8.805,0,0,1,713.6,196.473Z" data-name="Path 595" transform="translate(-694.418 -168.49)"/></g></g><g id="Group_2356" data-name="Group 2356" transform="translate(28.71 32.995)"><g id="Group_2355" data-name="Group 2355"><path id="Path_596" fill="#b6d0fb" d="M736.725,199.436l-.537-1.786a.688.688,0,0,0-.855-.458l-1.55.47a.967.967,0,0,1-1.033-.38l-1.563-1.9a.977.977,0,0,1-.16-1.085l.766-1.431a.686.686,0,0,0-.274-.927l-1.647-.882a.687.687,0,0,0-.926.281l-.77,1.431a.975.975,0,0,1-.991.464l-2.447-.247a.966.966,0,0,1-.88-.65l-.472-1.553a.677.677,0,0,0-.85-.454l-1.788.534a.689.689,0,0,0-.458.858l.474,1.552a.964.964,0,0,1-.383,1.03l-1.9,1.564a.974.974,0,0,1-1.083.16l-1.432-.768a.679.679,0,0,0-.923.28l-.885,1.641a.689.689,0,0,0,.278.927l1.434.774a.96.96,0,0,1,.464.988l-.244,2.444a.965.965,0,0,1-.652.882l-1.555.473a.68.68,0,0,0-.457.852l.54,1.785a.681.681,0,0,0,.855.457l1.555-.469a.976.976,0,0,1,1.026.377l1.563,1.9a.983.983,0,0,1,.163,1.086l-.77,1.431a.693.693,0,0,0,.283.927l1.643.879a.686.686,0,0,0,.926-.278l.771-1.434a.966.966,0,0,1,.991-.466l2.441.248a.972.972,0,0,1,.886.653l.467,1.552a.684.684,0,0,0,.855.455l1.786-.54a.692.692,0,0,0,.461-.849l-.472-1.555a.968.968,0,0,1,.372-1.03l1.9-1.561a.981.981,0,0,1,1.086-.166l1.429.768a.681.681,0,0,0,.929-.277l.882-1.647a.683.683,0,0,0-.283-.924l-1.432-.771a.96.96,0,0,1-.463-.985l.25-2.453a.97.97,0,0,1,.647-.88l1.557-.469A.685.685,0,0,0,736.725,199.436Zm-6.839,5.119a5.454,5.454,0,1,1-2.23-7.383A5.453,5.453,0,0,1,729.886,204.555Z" data-name="Path 596" transform="translate(-713.399 -190.303)"/></g></g></g><g id="Group_2358" data-name="Group 2358" transform="translate(61.725 171.056)"><path id="Path_597" fill="#405b91" d="M715.545,207.2H635.895a1.569,1.569,0,1,1,0-3.137h79.651a1.569,1.569,0,1,1,0,3.137Z" data-name="Path 597" transform="translate(-634.326 -204.065)"/></g><g id="Group_2359" data-name="Group 2359" transform="translate(0 378.054)"><path id="Path_598" fill="#405b91" d="M1098.648,344.051H594.83a1.594,1.594,0,0,1,0-3.137h503.818a1.594,1.594,0,0,1,0,3.137Z" data-name="Path 598" transform="translate(-593.519 -340.914)"/></g><g id="Group_2370" data-name="Group 2370" transform="translate(98.61 254.332)"><g id="Group_2360" data-name="Group 2360"><path id="Path_599" fill="#405b91" d="M660.28,383.073a1.569,1.569,0,0,1-1.569-1.569V260.689a1.569,1.569,0,0,1,3.139,0V381.5A1.569,1.569,0,0,1,660.28,383.073Z" data-name="Path 599" transform="translate(-658.711 -259.12)"/></g><g id="Group_2361" data-name="Group 2361" transform="translate(28.077)"><path id="Path_600" fill="#405b91" d="M678.842,383.073a1.568,1.568,0,0,1-1.569-1.569V260.689a1.569,1.569,0,1,1,3.137,0V381.5A1.568,1.568,0,0,1,678.842,383.073Z" data-name="Path 600" transform="translate(-677.273 -259.12)"/></g><g id="Group_2362" data-name="Group 2362" transform="translate(0 8.257)"><path id="Path_601" fill="#405b91" d="M688.357,267.716H660.28a1.569,1.569,0,0,1,0-3.137h28.077a1.569,1.569,0,0,1,0,3.137Z" data-name="Path 601" transform="translate(-658.711 -264.579)"/></g><g id="Group_2363" data-name="Group 2363" transform="translate(0 22.06)"><path id="Path_602" fill="#405b91" d="M688.357,276.841H660.28a1.569,1.569,0,0,1,0-3.137h28.077a1.569,1.569,0,0,1,0,3.137Z" data-name="Path 602" transform="translate(-658.711 -273.704)"/></g><g id="Group_2364" data-name="Group 2364" transform="translate(0 35.862)"><path id="Path_603" fill="#405b91" d="M688.357,285.966H660.28a1.569,1.569,0,0,1,0-3.137h28.077a1.569,1.569,0,0,1,0,3.137Z" data-name="Path 603" transform="translate(-658.711 -282.829)"/></g><g id="Group_2365" data-name="Group 2365" transform="translate(0 49.665)"><path id="Path_604" fill="#405b91" d="M688.357,295.091H660.28a1.569,1.569,0,0,1,0-3.137h28.077a1.569,1.569,0,0,1,0,3.137Z" data-name="Path 604" transform="translate(-658.711 -291.954)"/></g><g id="Group_2366" data-name="Group 2366" transform="translate(0 63.467)"><path id="Path_605" fill="#405b91" d="M688.357,304.216H660.28a1.569,1.569,0,0,1,0-3.137h28.077a1.569,1.569,0,0,1,0,3.137Z" data-name="Path 605" transform="translate(-658.711 -301.079)"/></g><g id="Group_2367" data-name="Group 2367" transform="translate(0 77.27)"><path id="Path_606" fill="#405b91" d="M688.357,313.341H660.28a1.569,1.569,0,0,1,0-3.137h28.077a1.569,1.569,0,0,1,0,3.137Z" data-name="Path 606" transform="translate(-658.711 -310.204)"/></g><g id="Group_2368" data-name="Group 2368" transform="translate(0 91.072)"><path id="Path_607" fill="#405b91" d="M688.357,322.466H660.28a1.569,1.569,0,0,1,0-3.137h28.077a1.569,1.569,0,0,1,0,3.137Z" data-name="Path 607" transform="translate(-658.711 -319.329)"/></g><g id="Group_2369" data-name="Group 2369" transform="translate(0 104.873)"><path id="Path_608" fill="#405b91" d="M688.357,331.59H660.28a1.569,1.569,0,0,1,0-3.137h28.077a1.569,1.569,0,0,1,0,3.137Z" data-name="Path 608" transform="translate(-658.711 -328.453)"/></g></g><g id="Group_2373" data-name="Group 2373" transform="translate(57.32 252.517)"><g id="Group_2371" data-name="Group 2371" transform="translate(3.052)"><path id="Path_609" fill="#405b91" d="M635,267.165a1.569,1.569,0,0,1-1.568-1.569v-6.108a1.569,1.569,0,1,1,3.137,0V265.6A1.569,1.569,0,0,1,635,267.165Z" data-name="Path 609" transform="translate(-633.432 -257.92)"/></g><g id="Group_2372" data-name="Group 2372" transform="translate(0 3.054)"><path id="Path_610" fill="#405b91" d="M639.089,263.076h-6.106a1.569,1.569,0,1,1,0-3.137h6.106a1.569,1.569,0,1,1,0,3.137Z" data-name="Path 610" transform="translate(-631.414 -259.939)"/></g></g><g id="Group_2376" data-name="Group 2376" transform="translate(245.027 352.611)"><g id="Group_2374" data-name="Group 2374" transform="translate(0 2.098)"><path id="Path_611" fill="#405b91" d="M762.952,330.292a1.567,1.567,0,0,1-.431-.061l-5.874-1.676a1.569,1.569,0,0,1,.861-3.018l5.873,1.676a1.569,1.569,0,0,1-.43,3.078Z" data-name="Path 611" transform="translate(-755.509 -325.48)"/></g><g id="Group_2375" data-name="Group 2375" transform="translate(2.097)"><path id="Path_612" fill="#405b91" d="M758.466,333.1a1.627,1.627,0,0,1-.431-.059,1.57,1.57,0,0,1-1.079-1.939l1.677-5.873a1.568,1.568,0,1,1,3.016.861l-1.677,5.873A1.567,1.567,0,0,1,758.466,333.1Z" data-name="Path 612" transform="translate(-756.896 -324.093)"/></g></g><g id="Group_2379" data-name="Group 2379" transform="translate(214.171 168.118)"><g id="Group_2377" data-name="Group 2377" transform="translate(0 2.099)"><path id="Path_613" fill="#405b91" d="M742.552,208.326a1.585,1.585,0,0,1-.431-.06l-5.872-1.677a1.568,1.568,0,1,1,.861-3.016l5.873,1.676a1.569,1.569,0,0,1-.431,3.078Z" data-name="Path 613" transform="translate(-735.11 -203.511)"/></g><g id="Group_2378" data-name="Group 2378" transform="translate(2.098)"><path id="Path_614" fill="#405b91" d="M738.067,211.135a1.523,1.523,0,0,1-.431-.062,1.569,1.569,0,0,1-1.078-1.939l1.677-5.872a1.568,1.568,0,1,1,3.016.861L739.574,210A1.57,1.57,0,0,1,738.067,211.135Z" data-name="Path 614" transform="translate(-736.497 -202.123)"/></g></g><g id="Group_2388" data-name="Group 2388" transform="translate(279.682 352.464)"><g id="Group_2380" data-name="Group 2380"><rect id="Rectangle_606" width="10.107" height="10.107" fill="#fff" data-name="Rectangle 606" transform="translate(0.785 0.784)"/><path id="Path_615" fill="#415b91" d="M790.1,335.672H778.42V324H790.1ZM779.989,334.1h8.539v-8.539h-8.539Z" data-name="Path 615" transform="translate(-778.42 -323.996)"/></g><g id="Group_2387" data-name="Group 2387" transform="translate(13.902 1.743)"><g id="Group_2382" data-name="Group 2382"><g id="Group_2381" data-name="Group 2381"><path id="Path_616" fill="#405b91" d="M797.393,326.413h-9.15a.632.632,0,1,1,0-1.265h9.15a.632.632,0,0,1,0,1.265Z" data-name="Path 616" transform="translate(-787.611 -325.148)"/></g></g><g id="Group_2384" data-name="Group 2384" transform="translate(0 6.928)"><g id="Group_2383" data-name="Group 2383"><path id="Path_617" fill="#405b91" d="M800.831,330.991H788.464c-.47,0-.853-.283-.853-.632s.383-.631.853-.631h12.367c.472,0,.853.281.853.631S801.3,330.991,800.831,330.991Z" data-name="Path 617" transform="translate(-787.611 -329.728)"/></g></g><g id="Group_2386" data-name="Group 2386" transform="translate(0 3.269)"><g id="Group_2385" data-name="Group 2385"><path id="Path_618" fill="#405b91" d="M805.334,328.572H788.243a.632.632,0,1,1,0-1.263h17.091a.632.632,0,0,1,0,1.263Z" data-name="Path 618" transform="translate(-787.611 -327.309)"/></g></g></g></g><g id="Group_2397" data-name="Group 2397" transform="translate(37.166 204.145)"><g id="Group_2389" data-name="Group 2389" transform="translate(20.58)"><rect id="Rectangle_607" width="10.107" height="10.107" fill="#fff" data-name="Rectangle 607" transform="translate(10.892 10.891) rotate(180)"/><path id="Path_619" fill="#415b91" d="M643.372,237.617H631.7V225.941h11.676Zm-10.107-1.569H641.8V227.51h-8.539Z" data-name="Path 619" transform="translate(-631.696 -225.941)"/></g><g id="Group_2396" data-name="Group 2396" transform="translate(0 1.743)"><g id="Group_2391" data-name="Group 2391" transform="translate(7.941)"><g id="Group_2390" data-name="Group 2390"><path id="Path_620" fill="#405b91" d="M623.971,228.356h9.151a.632.632,0,0,0,0-1.263h-9.151a.632.632,0,0,0,0,1.263Z" data-name="Path 620" transform="translate(-623.34 -227.093)"/></g></g><g id="Group_2393" data-name="Group 2393" transform="translate(4.281 6.926)"><g id="Group_2392" data-name="Group 2392"><path id="Path_621" fill="#405b91" d="M621.775,232.935H634.14c.472,0,.853-.281.853-.631s-.381-.632-.853-.632H621.775c-.472,0-.855.283-.855.632S621.3,232.935,621.775,232.935Z" data-name="Path 621" transform="translate(-620.92 -231.672)"/></g></g><g id="Group_2395" data-name="Group 2395" transform="translate(0 3.269)"><g id="Group_2394" data-name="Group 2394"><path id="Path_622" fill="#405b91" d="M618.721,230.517h17.092a.632.632,0,0,0,0-1.263H618.721a.632.632,0,0,0,0,1.263Z" data-name="Path 622" transform="translate(-618.09 -229.254)"/></g></g></g></g><g id="Group_2404" data-name="Group 2404" transform="translate(156.266 220.7)"><g id="Group_2399" data-name="Group 2399" transform="translate(3.684 12.842)"><g id="Group_2398" data-name="Group 2398"><path id="Path_623" fill="#d7e7ff" d="M702.66,283.019l37.989-34.344c1.876-1.7-.9-4.462-2.774-2.773l-37.988,34.342c-1.876,1.7.9,4.464,2.773,2.774Z" data-name="Path 623" transform="translate(-699.264 -245.376)"/></g></g><g id="Group_2401" data-name="Group 2401" transform="translate(46.616 30.358)"><g id="Group_2400" data-name="Group 2400"><path id="Path_624" fill="#d7e7ff" d="M731.043,294.6l37.989-34.342c1.876-1.7-.9-4.464-2.774-2.774L728.27,291.826c-1.876,1.7.9,4.462,2.773,2.773Z" data-name="Path 624" transform="translate(-727.647 -256.956)"/></g></g><g id="Group_2403" data-name="Group 2403"><g id="Group_2402" data-name="Group 2402"><path id="Path_625" fill="#d7e7ff" d="M700.19,317.862l79.62-77.637c1.809-1.765-.965-4.538-2.774-2.774q-39.808,38.821-79.619,77.639c-1.811,1.765.963,4.536,2.773,2.773Z" data-name="Path 625" transform="translate(-696.828 -236.886)"/></g></g></g><g id="Group_2574" data-name="Group 2574" transform="translate(212.532 0)"><g id="Group_2573" data-name="Group 2573"><g id="Group_2411" data-name="Group 2411" transform="translate(60.98 60.255)"><g id="Group_2406" data-name="Group 2406" transform="translate(6.101)"><g id="Group_2405" data-name="Group 2405"><rect id="Rectangle_608" width="1.707" height="109.57" fill="#415b91" data-name="Rectangle 608"/></g></g><g id="Group_2408" data-name="Group 2408" transform="translate(0 102.616)"><g id="Group_2407" data-name="Group 2407"><path id="Path_626" fill="#415b91" d="M788.251,205.607a6.955,6.955,0,1,1-6.955-6.953A6.955,6.955,0,0,1,788.251,205.607Z" data-name="Path 626" transform="translate(-774.341 -198.654)"/></g></g><g id="Group_2410" data-name="Group 2410" transform="translate(1.342 114.697)"><g id="Group_2409" data-name="Group 2409"><path id="Path_627" fill="#415b91" d="M780.938,224.848a5.742,5.742,0,0,1-5.71-6.233.92.92,0,0,1,1.841,0,4.421,4.421,0,0,0,1.127,3.254,4.359,4.359,0,0,0,2.742,1.139,4.706,4.706,0,1,0,0-9.411.92.92,0,0,1-.92-.921v-5.113a.92.92,0,1,1,1.841,0v4.256a6.547,6.547,0,0,1-.921,13.03Z" data-name="Path 627" transform="translate(-775.228 -206.641)"/></g></g></g><g id="Group_2421" data-name="Group 2421" transform="translate(0 190.201)"><g id="Group_2413" data-name="Group 2413" transform="translate(30.8 0.001)"><g id="Group_2412" data-name="Group 2412"><path id="Path_628" fill="#415b91" d="M755.1,223.963a.854.854,0,0,1,.021-1.685l37.649-5.545a.853.853,0,1,1,.248,1.688l-37.647,5.545A.813.813,0,0,1,755.1,223.963Z" data-name="Path 628" transform="translate(-754.389 -216.723)"/></g></g><g id="Group_2415" data-name="Group 2415" transform="translate(68.447)"><g id="Group_2414" data-name="Group 2414"><path id="Path_629" fill="#415b91" d="M814.6,236.492a.871.871,0,0,1-.25-.085l-34.617-18.074a.853.853,0,1,1,.79-1.513l34.619,18.074a.853.853,0,0,1-.542,1.6Z" data-name="Path 629" transform="translate(-779.278 -216.722)"/></g></g><g id="Group_2416" data-name="Group 2416" transform="translate(0 3.918)"><rect id="Rectangle_609" width="111.339" height="71.64" fill="#fff" data-name="Rectangle 609" rx="5.869" transform="translate(12.265 0) rotate(9.857)"/><path id="Path_630" fill="#415b91" d="M836.144,308.6a10.411,10.411,0,0,1-1.785-.154l-91.55-15.908a10.382,10.382,0,0,1-8.453-12.01l9.112-52.439a10.4,10.4,0,0,1,12.007-8.452l91.552,15.908a10.386,10.386,0,0,1,8.455,12.009L846.37,300A10.406,10.406,0,0,1,836.144,308.6Zm-82.451-86.764a8.043,8.043,0,0,0-7.908,6.657l-9.112,52.439a8.03,8.03,0,0,0,6.537,9.287l91.553,15.906a8.037,8.037,0,0,0,9.286-6.536l9.112-52.439a8.03,8.03,0,0,0-6.536-9.287l-91.553-15.91A8.085,8.085,0,0,0,753.693,221.839Z" data-name="Path 630" transform="translate(-733.938 -219.223)"/></g><g id="Group_2417" data-name="Group 2417" transform="translate(5.491 9.958)"><rect id="Rectangle_610" width="101.597" height="60.549" fill="#b6d0fb" data-name="Rectangle 610" rx="3.75" transform="matrix(0.985, 0.171, -0.171, 0.985, 10.624, 0.258)"/><path id="Path_631" fill="#405b91" d="M833.237,300.87a7.25,7.25,0,0,1-1.222-.106l-88.505-15.38a7.058,7.058,0,0,1-5.746-8.162l8.351-48.064a7.062,7.062,0,0,1,8.164-5.746l88.5,15.379a7.067,7.067,0,0,1,5.748,8.164l-8.351,48.063a7.065,7.065,0,0,1-6.941,5.854Zm-.821-2.425a4.7,4.7,0,0,0,5.442-3.83l8.353-48.066a4.711,4.711,0,0,0-3.83-5.441l-88.505-15.38a4.72,4.72,0,0,0-5.444,3.831l-8.351,48.064a4.71,4.71,0,0,0,3.832,5.442Z" data-name="Path 631" transform="translate(-737.657 -223.305)"/></g><g id="Group_2418" data-name="Group 2418" transform="translate(56.368 56.576)"><path id="Path_632" fill="#fff" d="M772.42,276.072l23.008-21.087,12.734,27.3Z" data-name="Path 632" transform="translate(-770.714 -253.684)"/><path id="Path_633" fill="#415b91" d="M810.087,283.752l-38.8-6.74,24.973-22.887Zm-35.381-7.74,32.687,5.681-11.646-24.969Z" data-name="Path 633" transform="translate(-771.292 -254.125)"/></g><g id="Group_2419" data-name="Group 2419" transform="translate(10.873 32.371)"><path id="Path_634" fill="#fff" d="M742.343,276.368l40.791-37.385,22.575,48.4Z" data-name="Path 634" transform="translate(-740.637 -237.682)"/><path id="Path_635" fill="#415b91" d="M807.635,288.85l-66.42-11.541,42.755-39.185ZM744.626,276.31l60.315,10.481-21.488-46.066Z" data-name="Path 635" transform="translate(-741.215 -238.123)"/></g><g id="Group_2420" data-name="Group 2420" transform="translate(89.765 33.294)"><path id="Path_636" fill="#fff" d="M805.215,245.933a5.7,5.7,0,1,1-4.644-6.6A5.7,5.7,0,0,1,805.215,245.933Z" data-name="Path 636" transform="translate(-793.105 -238.467)"/><path id="Path_637" fill="#415b91" d="M799.874,251.713a6.612,6.612,0,0,1-1.125-.1,6.475,6.475,0,1,1,1.125.1Zm-.023-11.411a4.92,4.92,0,1,0,4.857,5.763h0a4.928,4.928,0,0,0-4.857-5.763Z" data-name="Path 637" transform="translate(-793.371 -238.733)"/></g></g><g id="Group_2423" data-name="Group 2423" transform="translate(52.964 56.569)"><g id="Group_2422" data-name="Group 2422"><rect id="Rectangle_611" width="85.503" height="9.409" fill="#b6d0fb" data-name="Rectangle 611"/></g></g><g id="Group_2572" data-name="Group 2572" transform="translate(85.177)"><g id="Group_2550" data-name="Group 2550"><g id="Group_2535" data-name="Group 2535"><g id="Group_2496" data-name="Group 2496" transform="translate(99.21)"><g id="Group_2425" data-name="Group 2425" transform="translate(0 0.124)"><g id="Group_2424" data-name="Group 2424"><path id="Path_638" fill="#415b91" d="M884.312,342.033H855.927V91.06h28.385Zm-25.578-2.809h22.771V93.867H858.734Z" data-name="Path 638" transform="translate(-855.927 -91.06)"/></g></g><g id="Group_2432" data-name="Group 2432" transform="translate(0.355)"><g id="Group_2427" data-name="Group 2427"><g id="Group_2426" data-name="Group 2426"><path id="Path_639" fill="#415b91" d="M883.837,118.651H856.162V90.978h27.675Zm-24.829-2.845h21.984V93.823H859.007Z" data-name="Path 639" transform="translate(-856.162 -90.978)"/></g></g><g id="Group_2429" data-name="Group 2429" transform="translate(0.417 0.416)"><g id="Group_2428" data-name="Group 2428"><rect id="Rectangle_612" width="2.845" height="35.113" fill="#415b91" data-name="Rectangle 612" transform="translate(0 2.012) rotate(-45)"/></g></g><g id="Group_2431" data-name="Group 2431" transform="translate(0.417 0.416)"><g id="Group_2430" data-name="Group 2430"><rect id="Rectangle_613" width="35.113" height="2.845" fill="#415b91" data-name="Rectangle 613" transform="translate(0 24.828) rotate(-45)"/></g></g></g><g id="Group_2439" data-name="Group 2439" transform="translate(0.355 24.828)"><g id="Group_2434" data-name="Group 2434"><g id="Group_2433" data-name="Group 2433"><path id="Path_640" fill="#415b91" d="M883.837,135.065H856.162V107.392h27.675Zm-24.829-2.845h21.984V110.237H859.007Z" data-name="Path 640" transform="translate(-856.162 -107.392)"/></g></g><g id="Group_2436" data-name="Group 2436" transform="translate(0.417 0.417)"><g id="Group_2435" data-name="Group 2435"><rect id="Rectangle_614" width="2.845" height="35.113" fill="#415b91" data-name="Rectangle 614" transform="translate(0 2.012) rotate(-45)"/></g></g><g id="Group_2438" data-name="Group 2438" transform="translate(0.417 0.417)"><g id="Group_2437" data-name="Group 2437"><rect id="Rectangle_615" width="35.113" height="2.845" fill="#415b91" data-name="Rectangle 615" transform="translate(0 24.828) rotate(-45)"/></g></g></g><g id="Group_2446" data-name="Group 2446" transform="translate(0.355 49.656)"><g id="Group_2441" data-name="Group 2441"><g id="Group_2440" data-name="Group 2440"><path id="Path_641" fill="#415b91" d="M883.837,151.479H856.162V123.806h27.675Zm-24.829-2.844h21.984V126.651H859.007Z" data-name="Path 641" transform="translate(-856.162 -123.806)"/></g></g><g id="Group_2443" data-name="Group 2443" transform="translate(0.417 0.417)"><g id="Group_2442" data-name="Group 2442"><rect id="Rectangle_616" width="2.845" height="35.113" fill="#415b91" data-name="Rectangle 616" transform="translate(0 2.012) rotate(-45)"/></g></g><g id="Group_2445" data-name="Group 2445" transform="translate(0.418 0.417)"><g id="Group_2444" data-name="Group 2444"><rect id="Rectangle_617" width="35.113" height="2.845" fill="#415b91" data-name="Rectangle 617" transform="matrix(0.707, -0.707, 0.707, 0.707, 0, 24.829)"/></g></g></g><g id="Group_2453" data-name="Group 2453" transform="translate(0.355 74.485)"><g id="Group_2448" data-name="Group 2448"><g id="Group_2447" data-name="Group 2447"><path id="Path_642" fill="#415b91" d="M883.837,167.894H856.162V140.221h27.675Zm-24.829-2.845h21.984V143.065H859.007Z" data-name="Path 642" transform="translate(-856.162 -140.221)"/></g></g><g id="Group_2450" data-name="Group 2450" transform="translate(0.417 0.416)"><g id="Group_2449" data-name="Group 2449"><rect id="Rectangle_618" width="2.845" height="35.113" fill="#415b91" data-name="Rectangle 618" transform="translate(0 2.012) rotate(-45)"/></g></g><g id="Group_2452" data-name="Group 2452" transform="translate(0.417 0.416)"><g id="Group_2451" data-name="Group 2451"><rect id="Rectangle_619" width="35.113" height="2.845" fill="#415b91" data-name="Rectangle 619" transform="translate(0 24.828) rotate(-45)"/></g></g></g><g id="Group_2460" data-name="Group 2460" transform="translate(0.355 99.313)"><g id="Group_2455" data-name="Group 2455"><g id="Group_2454" data-name="Group 2454"><path id="Path_643" fill="#415b91" d="M883.837,184.308H856.162V156.635h27.675Zm-24.829-2.845h21.984V159.48H859.007Z" data-name="Path 643" transform="translate(-856.162 -156.635)"/></g></g><g id="Group_2457" data-name="Group 2457" transform="translate(0.417 0.416)"><g id="Group_2456" data-name="Group 2456"><rect id="Rectangle_620" width="2.845" height="35.113" fill="#415b91" data-name="Rectangle 620" transform="translate(0 2.012) rotate(-45)"/></g></g><g id="Group_2459" data-name="Group 2459" transform="translate(0.418 0.416)"><g id="Group_2458" data-name="Group 2458"><rect id="Rectangle_621" width="35.113" height="2.845" fill="#415b91" data-name="Rectangle 621" transform="matrix(0.707, -0.707, 0.707, 0.707, 0, 24.829)"/></g></g></g><g id="Group_2467" data-name="Group 2467" transform="translate(0.355 124.141)"><g id="Group_2462" data-name="Group 2462"><g id="Group_2461" data-name="Group 2461"><path id="Path_644" fill="#415b91" d="M883.837,200.722H856.162V173.049h27.675Zm-24.829-2.844h21.984V175.894H859.007Z" data-name="Path 644" transform="translate(-856.162 -173.049)"/></g></g><g id="Group_2464" data-name="Group 2464" transform="translate(0.417 0.417)"><g id="Group_2463" data-name="Group 2463"><rect id="Rectangle_622" width="2.845" height="35.113" fill="#415b91" data-name="Rectangle 622" transform="translate(0 2.012) rotate(-45)"/></g></g><g id="Group_2466" data-name="Group 2466" transform="translate(0.418 0.416)"><g id="Group_2465" data-name="Group 2465"><rect id="Rectangle_623" width="35.113" height="2.845" fill="#415b91" data-name="Rectangle 623" transform="matrix(0.707, -0.707, 0.707, 0.707, 0, 24.829)"/></g></g></g><g id="Group_2474" data-name="Group 2474" transform="translate(0.355 148.97)"><g id="Group_2469" data-name="Group 2469"><g id="Group_2468" data-name="Group 2468"><path id="Path_645" fill="#415b91" d="M883.837,217.136H856.162V189.464h27.675Zm-24.829-2.844h21.984V192.308H859.007Z" data-name="Path 645" transform="translate(-856.162 -189.464)"/></g></g><g id="Group_2471" data-name="Group 2471" transform="translate(0.417 0.416)"><g id="Group_2470" data-name="Group 2470"><rect id="Rectangle_624" width="2.845" height="35.113" fill="#415b91" data-name="Rectangle 624" transform="translate(0 2.012) rotate(-45)"/></g></g><g id="Group_2473" data-name="Group 2473" transform="translate(0.418 0.415)"><g id="Group_2472" data-name="Group 2472"><rect id="Rectangle_625" width="35.113" height="2.845" fill="#415b91" data-name="Rectangle 625" transform="matrix(0.707, -0.707, 0.707, 0.707, 0, 24.829)"/></g></g></g><g id="Group_2481" data-name="Group 2481" transform="translate(0.355 173.798)"><g id="Group_2476" data-name="Group 2476"><g id="Group_2475" data-name="Group 2475"><path id="Path_646" fill="#415b91" d="M883.837,233.551H856.162V205.878h27.675Zm-24.829-2.845h21.984V208.722H859.007Z" data-name="Path 646" transform="translate(-856.162 -205.878)"/></g></g><g id="Group_2478" data-name="Group 2478" transform="translate(0.417 0.416)"><g id="Group_2477" data-name="Group 2477"><rect id="Rectangle_626" width="2.845" height="35.113" fill="#415b91" data-name="Rectangle 626" transform="translate(0 2.012) rotate(-45)"/></g></g><g id="Group_2480" data-name="Group 2480" transform="translate(0.418 0.416)"><g id="Group_2479" data-name="Group 2479"><rect id="Rectangle_627" width="35.113" height="2.845" fill="#415b91" data-name="Rectangle 627" transform="matrix(0.707, -0.707, 0.707, 0.707, 0, 24.829)"/></g></g></g><g id="Group_2488" data-name="Group 2488" transform="translate(0.355 198.626)"><g id="Group_2483" data-name="Group 2483"><g id="Group_2482" data-name="Group 2482"><path id="Path_647" fill="#415b91" d="M883.837,249.965H856.162V222.292h27.675Zm-24.829-2.845h21.984V225.137H859.007Z" data-name="Path 647" transform="translate(-856.162 -222.292)"/></g></g><g id="Group_2485" data-name="Group 2485" transform="translate(0.417 0.417)"><g id="Group_2484" data-name="Group 2484"><rect id="Rectangle_628" width="2.845" height="35.113" fill="#415b91" data-name="Rectangle 628" transform="translate(0 2.012) rotate(-45)"/></g></g><g id="Group_2487" data-name="Group 2487" transform="translate(0.418 0.416)"><g id="Group_2486" data-name="Group 2486"><rect id="Rectangle_629" width="35.113" height="2.845" fill="#415b91" data-name="Rectangle 629" transform="matrix(0.707, -0.707, 0.707, 0.707, 0, 24.829)"/></g></g></g><g id="Group_2495" data-name="Group 2495" transform="translate(0.355 223.454)"><g id="Group_2490" data-name="Group 2490"><g id="Group_2489" data-name="Group 2489"><path id="Path_648" fill="#415b91" d="M883.837,266.379H856.162V238.706h27.675Zm-24.829-2.844h21.984V241.551H859.007Z" data-name="Path 648" transform="translate(-856.162 -238.706)"/></g></g><g id="Group_2492" data-name="Group 2492" transform="translate(0.417 0.417)"><g id="Group_2491" data-name="Group 2491"><rect id="Rectangle_630" width="2.845" height="35.113" fill="#415b91" data-name="Rectangle 630" transform="translate(0 2.012) rotate(-44.999)"/></g></g><g id="Group_2494" data-name="Group 2494" transform="translate(0.415 0.419)"><g id="Group_2493" data-name="Group 2493"><rect id="Rectangle_631" width="35.113" height="2.845" fill="#415b91" data-name="Rectangle 631" transform="translate(0 24.824) rotate(-44.989)"/></g></g></g></g><g id="Group_2534" data-name="Group 2534" transform="translate(0 24.454)"><g id="Group_2503" data-name="Group 2503" transform="translate(148.97)"><g id="Group_2498" data-name="Group 2498"><g id="Group_2497" data-name="Group 2497"><path id="Path_649" fill="#415b91" d="M916.5,134.818H888.824V107.145H916.5Zm-24.829-2.845h21.984V109.989H891.668Z" data-name="Path 649" transform="translate(-888.824 -107.145)"/></g></g><g id="Group_2500" data-name="Group 2500" transform="translate(0.418 0.414)"><g id="Group_2499" data-name="Group 2499"><rect id="Rectangle_632" width="35.113" height="2.845" fill="#415b91" data-name="Rectangle 632" transform="translate(0 24.833) rotate(-45.011)"/></g></g><g id="Group_2502" data-name="Group 2502" transform="translate(0.416 0.416)"><g id="Group_2501" data-name="Group 2501"><rect id="Rectangle_633" width="2.845" height="35.113" fill="#415b91" data-name="Rectangle 633" transform="translate(0 2.012) rotate(-45)"/></g></g></g><g id="Group_2510" data-name="Group 2510" transform="translate(124.142)"><g id="Group_2505" data-name="Group 2505"><g id="Group_2504" data-name="Group 2504"><path id="Path_650" fill="#415b91" d="M900.081,134.818H872.41V107.145h27.672Zm-24.828-2.845h21.984V109.989H875.254Z" data-name="Path 650" transform="translate(-872.41 -107.145)"/></g></g><g id="Group_2507" data-name="Group 2507" transform="translate(0.418 0.414)"><g id="Group_2506" data-name="Group 2506"><rect id="Rectangle_634" width="35.113" height="2.845" fill="#415b91" data-name="Rectangle 634" transform="translate(0 24.833) rotate(-45.011)"/></g></g><g id="Group_2509" data-name="Group 2509" transform="translate(0.416 0.416)"><g id="Group_2508" data-name="Group 2508"><rect id="Rectangle_635" width="2.845" height="35.113" fill="#415b91" data-name="Rectangle 635" transform="translate(0 2.012) rotate(-45)"/></g></g></g><g id="Group_2512" data-name="Group 2512" transform="translate(99.313)"><g id="Group_2511" data-name="Group 2511"><path id="Path_651" fill="#415b91" d="M883.668,134.818H855.995V107.145h27.673Zm-24.828-2.845h21.984V109.989H858.84Z" data-name="Path 651" transform="translate(-855.995 -107.145)"/></g></g><g id="Group_2519" data-name="Group 2519" transform="translate(74.485)"><g id="Group_2514" data-name="Group 2514"><g id="Group_2513" data-name="Group 2513"><path id="Path_652" fill="#415b91" d="M867.254,134.818H839.581V107.145h27.673Zm-24.828-2.845h21.983V109.989H842.426Z" data-name="Path 652" transform="translate(-839.581 -107.145)"/></g></g><g id="Group_2516" data-name="Group 2516" transform="translate(0.417 0.416)"><g id="Group_2515" data-name="Group 2515"><rect id="Rectangle_636" width="35.113" height="2.844" fill="#415b91" data-name="Rectangle 636" transform="translate(0 24.828) rotate(-45)"/></g></g><g id="Group_2518" data-name="Group 2518" transform="translate(0.417 0.416)"><g id="Group_2517" data-name="Group 2517"><rect id="Rectangle_637" width="2.844" height="35.113" fill="#415b91" data-name="Rectangle 637" transform="translate(0 2.011) rotate(-45)"/></g></g></g><g id="Group_2526" data-name="Group 2526" transform="translate(49.657)"><g id="Group_2521" data-name="Group 2521"><g id="Group_2520" data-name="Group 2520"><path id="Path_653" fill="#415b91" d="M850.84,134.818H823.167V107.145H850.84Zm-24.829-2.845h21.984V109.989H826.011Z" data-name="Path 653" transform="translate(-823.167 -107.145)"/></g></g><g id="Group_2523" data-name="Group 2523" transform="translate(0.416 0.416)"><g id="Group_2522" data-name="Group 2522"><rect id="Rectangle_638" width="35.113" height="2.844" fill="#415b91" data-name="Rectangle 638" transform="translate(0 24.829) rotate(-45)"/></g></g><g id="Group_2525" data-name="Group 2525" transform="translate(0.416 0.416)"><g id="Group_2524" data-name="Group 2524"><rect id="Rectangle_639" width="2.844" height="35.113" fill="#415b91" data-name="Rectangle 639" transform="translate(0 2.011) rotate(-45)"/></g></g></g><g id="Group_2533" data-name="Group 2533"><g id="Group_2528" data-name="Group 2528" transform="translate(24.828)"><g id="Group_2527" data-name="Group 2527"><path id="Path_654" fill="#415b91" d="M834.425,134.818H806.752V107.145h27.673ZM809.6,131.973h21.984V109.989H809.6Z" data-name="Path 654" transform="translate(-806.752 -107.145)"/></g></g><g id="Group_2530" data-name="Group 2530" transform="translate(0 0.416)"><g id="Group_2529" data-name="Group 2529"><path id="Path_655" fill="#415b91" d="M816.589,134.677H791.76a1.423,1.423,0,0,1-1-2.429l24.828-24.828,2.01,2.012-22.4,22.4H816l24.412-24.412,2.012,2.012L817.594,134.26A1.416,1.416,0,0,1,816.589,134.677Z" data-name="Path 655" transform="translate(-790.338 -107.42)"/></g></g><g id="Group_2532" data-name="Group 2532" transform="translate(25.245 0.416)"><g id="Group_2531" data-name="Group 2531"><rect id="Rectangle_640" width="2.844" height="35.113" fill="#415b91" data-name="Rectangle 640" transform="translate(0 2.011) rotate(-45)"/></g></g></g></g></g><g id="Group_2542" data-name="Group 2542" transform="translate(99.21 251.097)"><g id="Group_2537" data-name="Group 2537"><g id="Group_2536" data-name="Group 2536"><path id="Path_656" fill="#415b91" d="M884.373,284.653H855.927V256.981h28.446Zm-25.522-2.844h22.6V259.825h-22.6Z" data-name="Path 656" transform="translate(-855.927 -256.981)"/></g></g><g id="Group_2539" data-name="Group 2539" transform="translate(0.429 0.416)"><g id="Group_2538" data-name="Group 2538"><path id="Path_657" fill="#415b91" d="M881.732,284.1,856.21,259.268l2.068-2.011L883.8,282.084Z" data-name="Path 657" transform="translate(-856.21 -257.256)"/></g></g><g id="Group_2541" data-name="Group 2541" transform="translate(0.429 0.416)"><g id="Group_2540" data-name="Group 2540"><path id="Path_658" fill="#415b91" d="M858.278,284.1l-2.068-2.012,25.521-24.828,2.068,2.011Z" data-name="Path 658" transform="translate(-856.21 -257.256)"/></g></g></g><g id="Group_2549" data-name="Group 2549" transform="translate(99.21 350.41)"><g id="Group_2544" data-name="Group 2544"><g id="Group_2543" data-name="Group 2543"><path id="Path_659" fill="#415b91" d="M884.373,350.31H855.927V322.638h28.446Zm-25.522-2.844h22.6V325.482h-22.6Z" data-name="Path 659" transform="translate(-855.927 -322.638)"/></g></g><g id="Group_2546" data-name="Group 2546" transform="translate(0.429 0.416)"><g id="Group_2545" data-name="Group 2545"><path id="Path_660" fill="#415b91" d="M881.732,349.753,856.21,324.924l2.068-2.011L883.8,347.741Z" data-name="Path 660" transform="translate(-856.21 -322.913)"/></g></g><g id="Group_2548" data-name="Group 2548" transform="translate(0.429 0.416)"><g id="Group_2547" data-name="Group 2547"><path id="Path_661" fill="#415b91" d="M858.278,349.753l-2.068-2.012,25.521-24.828,2.068,2.011Z" data-name="Path 661" transform="translate(-856.21 -322.913)"/></g></g></g></g><g id="Group_2557" data-name="Group 2557" transform="translate(99.21 273.571)"><g id="Group_2552" data-name="Group 2552"><g id="Group_2551" data-name="Group 2551"><path id="Path_662" fill="#415b91" d="M884.373,299.512H855.927V271.839h28.446Zm-25.522-2.844h22.6V274.684h-22.6Z" data-name="Path 662" transform="translate(-855.927 -271.839)"/></g></g><g id="Group_2554" data-name="Group 2554" transform="translate(0.429 0.417)"><g id="Group_2553" data-name="Group 2553"><path id="Path_663" fill="#415b91" d="M881.732,298.955,856.21,274.126l2.068-2.011L883.8,296.943Z" data-name="Path 663" transform="translate(-856.21 -272.115)"/></g></g><g id="Group_2556" data-name="Group 2556" transform="translate(0.429 0.417)"><g id="Group_2555" data-name="Group 2555"><path id="Path_664" fill="#415b91" d="M858.278,298.955l-2.068-2.012,25.521-24.828,2.068,2.011Z" data-name="Path 664" transform="translate(-856.21 -272.115)"/></g></g></g><g id="Group_2564" data-name="Group 2564" transform="translate(99.21 298.4)"><g id="Group_2559" data-name="Group 2559"><g id="Group_2558" data-name="Group 2558"><path id="Path_665" fill="#415b91" d="M884.373,315.926H855.927V288.254h28.446Zm-25.522-2.844h22.6V291.1h-22.6Z" data-name="Path 665" transform="translate(-855.927 -288.254)"/></g></g><g id="Group_2561" data-name="Group 2561" transform="translate(0.429 0.416)"><g id="Group_2560" data-name="Group 2560"><path id="Path_666" fill="#415b91" d="M881.732,315.369,856.21,290.54l2.068-2.011L883.8,313.357Z" data-name="Path 666" transform="translate(-856.21 -288.529)"/></g></g><g id="Group_2563" data-name="Group 2563" transform="translate(0.429 0.416)"><g id="Group_2562" data-name="Group 2562"><path id="Path_667" fill="#415b91" d="M858.278,315.369l-2.068-2.012,25.521-24.828,2.068,2.011Z" data-name="Path 667" transform="translate(-856.21 -288.529)"/></g></g></g><g id="Group_2571" data-name="Group 2571" transform="translate(99.21 323.228)"><g id="Group_2566" data-name="Group 2566"><g id="Group_2565" data-name="Group 2565"><path id="Path_668" fill="#415b91" d="M884.373,332.34H855.927V304.668h28.446ZM858.851,329.5h22.6V307.512h-22.6Z" data-name="Path 668" transform="translate(-855.927 -304.668)"/></g></g><g id="Group_2568" data-name="Group 2568" transform="translate(0.429 0.416)"><g id="Group_2567" data-name="Group 2567"><path id="Path_669" fill="#415b91" d="M881.732,331.783,856.21,306.955l2.068-2.011L883.8,329.771Z" data-name="Path 669" transform="translate(-856.21 -304.943)"/></g></g><g id="Group_2570" data-name="Group 2570" transform="translate(0.429 0.416)"><g id="Group_2569" data-name="Group 2569"><path id="Path_670" fill="#415b91" d="M858.278,331.783l-2.068-2.012,25.521-24.828,2.068,2.011Z" data-name="Path 670" transform="translate(-856.21 -304.943)"/></g></g></g></g></g></g><g id="Group_2576" data-name="Group 2576" transform="translate(105.638 145.88)"><path id="Path_671" fill="#405b91" d="M664.86,188.976" data-name="Path 671" transform="translate(-662.587 -186.624)"/><g id="Group_2575" data-name="Group 2575"><path id="Path_672" fill="#405b91" d="M665.63,192.127c3.028,0,3.034-4.706,0-4.706s-3.033,4.706,0,4.706Z" data-name="Path 672" transform="translate(-663.357 -187.421)"/></g></g></g></g></svg>